<?xml version="1.0" standalone="no"?>
<!DOCTYPE svg PUBLIC "-//W3C//DTD SVG 20010904//EN"
 "http://www.w3.org/TR/2001/REC-SVG-20010904/DTD/svg10.dtd">
<svg version="1.0" xmlns="http://www.w3.org/2000/svg"
 width="2000.000000pt" height="2000.000000pt" viewBox="0 0 2000.000000 2000.000000"
 preserveAspectRatio="xMidYMid meet">
<metadata>
Created by potrace 1.11, written by Peter Selinger 2001-2013
</metadata>
<g transform="translate(0.000000,2000.000000) scale(0.100000,-0.100000)"
fill="#000000" stroke="none">
<path d="M0 10000 l0 -10000 10000 0 10000 0 0 10000 0 10000 -10000 0 -10000
0 0 -10000z m17500 4430 l0 -2450 -949 0 -950 0 -11 58 c-164 823 -609 1400
-1302 1686 -276 114 -641 170 -949 146 -545 -43 -1017 -255 -1385 -624 -157
-158 -259 -294 -367 -488 l-37 -67 3 -2863 c3 -3157 -2 -2913 62 -3169 200
-794 815 -1352 1683 -1524 129 -26 391 -55 494 -55 l58 0 0 -975 0 -975 -3850
0 -3850 0 0 975 0 975 58 0 c105 0 374 30 502 56 691 138 1230 527 1516 1092
92 183 162 401 201 632 16 99 18 279 20 2969 l3 2864 -61 100 c-379 627 -986
1018 -1683 1086 -205 20 -392 10 -615 -35 -321 -64 -648 -217 -901 -421 -98
-80 -281 -268 -353 -365 -215 -289 -365 -649 -432 -1040 l-6 -38 -949 0 -950
0 0 2450 0 2450 7500 0 7500 0 0 -2450z"/>
</g>
</svg>
