<?xml version="1.0" standalone="no"?>
<!DOCTYPE svg PUBLIC "-//W3C//DTD SVG 20010904//EN"
 "http://www.w3.org/TR/2001/REC-SVG-20010904/DTD/svg10.dtd">
<svg version="1.0" xmlns="http://www.w3.org/2000/svg"
 width="700.000000pt" height="700.000000pt" viewBox="0 0 700.000000 700.000000"
 preserveAspectRatio="xMidYMid meet">
<metadata>
Created by potrace 1.11, written by Peter Selinger 2001-2013
</metadata>
<g transform="translate(0.000000,700.000000) scale(0.100000,-0.100000)"
fill="#000000" stroke="none">
<path d="M1105 6511 c-2 -2 8 -27 24 -55 15 -28 70 -132 121 -231 51 -99 114
-220 140 -270 26 -49 78 -148 115 -220 37 -71 96 -185 131 -252 74 -142 169
-324 262 -503 68 -132 149 -288 252 -485 34 -66 66 -125 71 -130 7 -9 -118
-322 -175 -440 -8 -16 -101 -232 -207 -480 -105 -247 -200 -468 -210 -490 -10
-22 -44 -103 -77 -180 -33 -77 -69 -161 -81 -187 -11 -26 -21 -49 -21 -52 0
-3 -11 -29 -24 -58 -13 -29 -106 -244 -206 -478 -100 -234 -193 -449 -206
-478 -13 -29 -24 -55 -24 -58 0 -3 -11 -29 -24 -57 -13 -29 -49 -113 -81 -187
-31 -74 -63 -148 -71 -165 -12 -27 -229 -534 -241 -562 -4 -10 63 -13 315 -13
l321 0 7 23 c4 12 17 45 29 72 13 28 127 291 255 585 127 294 245 564 260 600
82 185 304 699 312 722 6 16 13 28 16 29 25 3 1071 4 1085 1 16 -4 17 -61 17
-1018 l0 -1014 299 0 c230 0 300 3 303 13 2 6 3 461 3 1010 -1 638 2 1000 8
1004 11 6 1050 11 1079 5 10 -3 45 -71 98 -195 46 -106 93 -216 106 -245 13
-29 24 -55 24 -57 0 -2 11 -28 24 -57 21 -46 332 -769 561 -1303 l73 -170 332
-3 c265 -2 331 0 327 10 -65 151 -298 694 -310 719 -8 19 -43 99 -77 179 -34
80 -68 159 -75 175 -8 17 -125 289 -261 605 -135 316 -255 593 -264 615 -10
22 -79 182 -153 355 -289 674 -419 977 -436 1015 -10 22 -34 75 -52 118 -32
77 -32 80 -16 110 9 18 47 91 85 162 38 72 106 202 152 290 45 88 99 192 120
230 21 39 63 120 95 180 119 227 180 345 270 515 51 96 123 234 160 305 37 72
87 166 110 210 69 130 114 219 114 230 1 10 -633 15 -648 5 -4 -3 -52 -90
-106 -195 -54 -104 -119 -230 -145 -280 -26 -49 -90 -173 -143 -275 -53 -102
-127 -246 -166 -320 -39 -74 -101 -194 -138 -267 -37 -73 -70 -129 -74 -125
-3 4 -25 52 -49 107 -23 55 -50 118 -60 140 -10 22 -112 261 -228 530 -116
270 -230 535 -254 590 l-43 100 -339 0 -339 0 -316 -737 c-174 -406 -318 -738
-321 -738 -3 0 -23 37 -46 83 -41 84 -386 764 -591 1167 l-115 225 -330 0
c-181 0 -331 -2 -333 -4z m2484 -894 c46 -111 101 -242 122 -292 20 -49 80
-193 134 -320 53 -126 124 -295 157 -375 33 -80 67 -160 75 -178 46 -105 49
-83 -26 -227 -38 -71 -108 -206 -156 -300 -48 -93 -102 -197 -120 -230 -18
-33 -83 -159 -145 -280 -63 -121 -121 -233 -131 -249 l-17 -29 -43 84 c-40 81
-230 456 -462 911 l-110 217 108 252 c59 139 117 276 130 304 12 27 105 245
206 482 101 238 186 433 189 433 3 0 43 -91 89 -203z m-942 -2077 c150 -286
243 -468 243 -474 0 -3 -129 -6 -286 -6 -268 0 -286 1 -280 18 39 102 252 589
257 584 3 -4 33 -59 66 -122z m1845 -79 c39 -91 92 -219 118 -283 l48 -118
-284 0 -285 0 74 143 c41 78 90 171 109 207 20 36 57 107 84 158 38 73 50 89
57 76 5 -9 41 -92 79 -183z"/>
</g>
</svg>
