<?xml version="1.0" encoding="UTF-8" standalone="no"?>
<svg
   xmlns:osb="http://www.openswatchbook.org/uri/2009/osb"
   xmlns:dc="http://purl.org/dc/elements/1.1/"
   xmlns:cc="http://creativecommons.org/ns#"
   xmlns:rdf="http://www.w3.org/1999/02/22-rdf-syntax-ns#"
   xmlns:svg="http://www.w3.org/2000/svg"
   xmlns="http://www.w3.org/2000/svg"
   xmlns:sodipodi="http://sodipodi.sourceforge.net/DTD/sodipodi-0.dtd"
   xmlns:inkscape="http://www.inkscape.org/namespaces/inkscape"
   width="5913.4951"
   height="1400.1644"
   viewBox="0 0 455.94467 107.95603"
   version="1.1"
   id="svg16"
   sodipodi:docname="bob-header.svg"
   inkscape:export-filename="/home/ayoung48/Data/UTK/website/assets/images/bob-header.png"
   inkscape:export-xdpi="20.774702"
   inkscape:export-ydpi="20.774702"
   inkscape:version="0.92.4 (unknown)">
  <metadata
     id="metadata22">
    <rdf:RDF>
      <cc:Work
         rdf:about="">
        <dc:format>image/svg+xml</dc:format>
        <dc:type
           rdf:resource="http://purl.org/dc/dcmitype/StillImage" />
        <dc:title />
      </cc:Work>
    </rdf:RDF>
  </metadata>
  <defs
     id="defs20">
    <linearGradient
       osb:paint="solid"
       id="linearGradient4329"
       gradientTransform="matrix(1.1565073,0,0,1.158463,-59.935189,-73.235603)">
      <stop
         id="stop4331"
         offset="0"
         style="stop-color:#58595b;stop-opacity:1;" />
    </linearGradient>
    <linearGradient
       id="linearGradient4323">
      <stop
         id="stop4325"
         offset="0"
         style="stop-color:#000000;stop-opacity:1;" />
    </linearGradient>
    <linearGradient
       gradientTransform="matrix(1.1565073,0,0,1.158463,-90.004384,-66.564667)"
       osb:paint="solid"
       id="linearGradient4317">
      <stop
         id="stop4319"
         offset="0"
         style="stop-color:#ff8200;stop-opacity:1;" />
    </linearGradient>
    <linearGradient
       id="linearGradient4297">
      <stop
         id="stop4299"
         offset="0"
         style="stop-color:#011d55;stop-opacity:1;" />
    </linearGradient>
  </defs>
  <sodipodi:namedview
     pagecolor="#ffffff"
     bordercolor="#666666"
     borderopacity="1"
     objecttolerance="10"
     gridtolerance="10"
     guidetolerance="10"
     inkscape:pageopacity="0"
     inkscape:pageshadow="2"
     inkscape:window-width="1887"
     inkscape:window-height="1056"
     id="namedview18"
     showgrid="false"
     inkscape:zoom="0.13350176"
     inkscape:cx="2336.8848"
     inkscape:cy="120.76145"
     inkscape:window-x="33"
     inkscape:window-y="24"
     inkscape:window-maximized="1"
     inkscape:current-layer="svg16"
     fit-margin-top="0"
     fit-margin-left="0"
     fit-margin-right="0"
     fit-margin-bottom="0" />
  <g
     id="layer1"
     inkscape:label="Layer 1"
     transform="matrix(0.52998872,0,0,0.52909402,25.010798,-190.54931)"
     style="stroke-width:1.15748477">
    <path
       inkscape:connector-curvature="0"
       id="path4170"
       d="m 113.63805,527.04671 c 0.95898,-0.95196 3.44558,-2.25588 5.52578,-2.89762 3.15781,-0.97419 3.69359,-1.57182 3.24556,-3.62032 -1.04834,-4.79326 -0.21875,-17.01353 1.40483,-20.6939 1.28178,-2.90558 1.37533,-4.21272 0.43842,-6.1261 -1.05482,-2.15416 -0.85771,-2.6421 1.72326,-4.26603 1.60286,-1.00852 3.51278,-1.78657 4.24427,-1.72902 0.73148,0.0576 2.25394,-1.32445 3.38325,-3.07114 1.62095,-2.50709 1.87722,-3.89922 1.21713,-6.61146 -0.99338,-4.0816 0.2478,-5.73957 4.65685,-6.22059 2.38196,-0.25987 3.77785,-1.63256 6.62782,-6.51767 4.18305,-7.17016 4.32035,-7.7494 2.31585,-9.77006 -2.39712,-2.41646 -1.25396,-7.33498 2.54148,-10.93484 4.24649,-4.02767 5.03175,-5.70588 4.18146,-8.93644 -0.36786,-1.39767 -0.24435,-2.4865 0.27634,-2.436 1.59319,0.15453 2.47552,-2.75942 1.85424,-6.12376 -0.52106,-2.82166 -0.31777,-3.16752 1.70863,-2.90709 2.07613,0.26683 2.31358,-0.20118 2.43928,-4.80771 0.11092,-4.06563 0.56174,-5.2712 2.21696,-5.92911 1.14273,-0.45419 9.18214,-0.43721 17.86535,0.0377 15.07153,0.82436 71.02763,1.07117 71.94342,0.31734 0.24054,-0.19802 0.96392,-2.96385 1.6075,-6.14632 l 1.17015,-5.78631 16.59872,-0.36291 c 31.81621,-0.69566 45.34447,-0.61058 85.4699,0.53744 24.28879,0.69493 46.97257,0.7363 56.90807,0.10382 22.47144,-1.43052 23.65069,-1.43585 55.30045,-0.2495 33.36949,1.2508 42.52238,1.0903 57.36087,-1.0058 6.21652,-0.87815 24.37766,-1.82389 40.35809,-2.10164 35.32353,-0.61395 52.30023,-1.64759 70.29621,-4.28003 7.81093,-1.14258 14.07233,-1.55796 14.55973,-0.96587 0.4874,0.5921 -0.1129,3.67348 -1.39583,7.16519 -1.23812,3.36948 -2.05521,7.04244 -1.81576,8.16215 0.32192,1.50579 -0.2836,2.14388 -2.32569,2.45088 -3.72455,0.55992 -8.20707,5.68553 -11.20529,12.81298 l -2.47317,5.87935 -5.0513,-0.98448 c -3.29035,-0.64128 -6.22934,-0.51325 -8.43057,0.36743 -3.97211,1.58909 -12.84935,9.27666 -14.99241,12.98321 -2.01152,3.47902 -3.04126,3.15522 -5.28808,-1.66284 -2.3895,-5.12398 -4.22515,-4.97647 -9.58684,0.77037 -2.95565,3.16796 -4.97863,4.42403 -6.79026,4.21607 -2.18876,-0.25126 -2.89205,0.51119 -4.63373,5.02346 -1.12934,2.9258 -2.30121,6.25922 -2.60417,7.4076 -0.38739,1.46834 -1.84107,2.22803 -4.89879,2.56006 -5.7192,0.62102 -10.55389,3.73735 -19.51577,12.57941 l -7.37569,7.27707 -7.77553,-0.24472 c -9.18104,-0.28898 -15.63495,1.90525 -20.81257,7.07597 -3.53794,3.53322 -6.66517,9.60446 -7.06374,13.71366 -0.23557,2.42881 -7.6716,6.14368 -12.37662,6.18309 l -3.00236,0.0251 -1.58195,10.66726 -1.58195,10.66726 -15.31692,-0.0742 c -8.42431,-0.0408 -39.48502,0.26214 -69.0238,0.67318 -29.53879,0.41104 -65.02583,0.64478 -78.8601,0.51941 -45.65303,-0.41367 -60.90059,-0.31639 -95.835,0.61141 -41.24728,1.09545 -66.00461,0.88222 -92.41476,-0.79596 -10.76996,-0.68435 -21.28569,-1.1438 -23.36828,-1.021 -3.49518,0.2061 -3.65238,0.0901 -2.04294,-1.50756 z"
       style="fill:url(#linearGradient4329);stroke:#000000;stroke-width:2.31496954;stroke-miterlimit:4;stroke-dasharray:none" />
    <path
       inkscape:connector-curvature="0"
       id="path4141"
       d="m 262.08437,427.38327 v 81.07409 h 29.1063 c 9.08667,0 16.09174,-1.973 21.01519,-5.919 4.92346,-3.946 7.38518,-9.53919 7.38518,-16.77957 0,-5.50268 -1.50237,-10.08222 -4.50713,-13.73861 -2.96856,-3.69259 -7.14987,-6.11811 -12.54395,-7.27657 4.48904,-0.72404 7.89201,-2.55224 10.20893,-5.48459 2.31692,-2.93235 3.47538,-6.87835 3.47538,-11.83801 0,-6.40773 -2.26262,-11.34928 -6.78785,-14.82467 -4.52524,-3.47538 -10.96917,-5.21307 -19.3318,-5.21307 z m 144.22825,0 v 81.07409 h 29.10631 c 9.08666,0 16.09173,-1.973 21.01518,-5.919 4.92346,-3.946 7.38518,-9.53919 7.38518,-16.77957 0,-5.50268 -1.50237,-10.08222 -4.50713,-13.73861 -2.96856,-3.69259 -7.14987,-6.11811 -12.54395,-7.27657 4.48904,-0.72404 7.89201,-2.55224 10.20893,-5.48459 2.31692,-2.93235 3.47538,-6.87835 3.47538,-11.83801 0,-6.40773 -2.26262,-11.34929 -6.78785,-14.82467 -4.52524,-3.47538 -10.96917,-5.21307 -19.3318,-5.21307 z m -133.25908,9.01427 h 16.23654 c 5.35787,0 9.34008,1.01365 11.94662,3.04095 2.64273,2.02731 3.9641,5.08637 3.9641,9.17718 0,4.12702 -1.32137,7.20418 -3.9641,9.23148 -2.60654,1.9911 -6.58875,2.98665 -11.94662,2.98665 h -16.23654 z m 144.22825,0 h 16.23654 c 5.35787,0 9.34008,1.01365 11.94662,3.04095 2.64273,2.02731 3.9641,5.08637 3.9641,9.17718 0,4.12702 -1.32137,7.20418 -3.9641,9.23148 -2.60654,1.9911 -6.58875,2.98665 -11.94662,2.98665 h -16.23654 z m -144.22825,33.34192 h 17.5941 c 5.90091,0 10.26324,1.21276 13.08698,3.63829 2.85995,2.38932 4.28992,6.11812 4.28992,11.18638 0,5.03205 -1.42997,8.77895 -4.28992,11.24068 -2.82374,2.42552 -7.18607,3.63828 -13.08698,3.63828 h -17.5941 z m 144.22825,0 h 17.59411 c 5.90091,0 10.26323,1.21276 13.08697,3.63829 2.85995,2.38932 4.28992,6.11812 4.28992,11.18638 0,5.03205 -1.42997,8.77895 -4.28992,11.24068 -2.82374,2.42552 -7.18606,3.63828 -13.08697,3.63828 h -17.59411 z"
       style="font-style:normal;font-variant:normal;font-weight:normal;font-stretch:normal;font-size:medium;line-height:125%;font-family:FontAwesome;-inkscape-font-specification:'FontAwesome, Normal';text-align:start;writing-mode:lr-tb;text-anchor:start;fill:url(#linearGradient4317);fill-opacity:1;stroke:none;stroke-width:17.36227036;stroke-linecap:round;stroke-linejoin:miter;stroke-miterlimit:4;stroke-dasharray:none;stroke-dashoffset:0;stroke-opacity:1" />
    <path
       id="path4226"
       d="m 344.62603,421.0507 c -0.47404,0.0147 -0.98458,0.18982 -1.56359,0.64669 -1.41847,-0.547 -2.79373,-0.73702 -4.02359,0.37657 -1.89916,-0.24634 -2.51632,0.26198 -2.9839,0.85543 -0.4169,-0.009 -3.11973,-0.42855 -4.35916,1.42031 -3.11475,-0.36857 -4.09916,1.8321 -2.98377,3.88423 -0.63614,0.98481 -1.29529,1.9577 0.19238,3.83512 -0.52626,1.04564 -0.20005,2.17996 1.03962,3.55273 -0.32716,1.46995 0.31593,2.50702 1.46942,3.31527 -0.21572,2.01153 1.84467,3.18102 2.45988,3.59779 0.23623,1.17206 0.7286,2.27807 3.08199,2.8896 0.38811,1.7467 1.8025,2.04833 3.17212,2.41493 -4.5268,2.63132 -8.40881,6.09342 -8.38248,14.58815 l -0.66307,1.18287 c -5.19059,3.15652 -9.86055,13.30194 -2.55797,21.54821 0.477,2.58128 1.27697,4.43539 1.98927,6.48739 1.06533,8.26866 8.01811,12.14045 9.8519,12.59834 2.68725,2.0469 5.54921,3.98915 9.42217,5.3496 3.65097,3.76544 7.60632,5.20054 11.58329,5.19819 0.0583,-4e-5 0.11768,6.2e-4 0.176,0 3.97697,0.002 7.93219,-1.43262 11.58328,-5.19819 3.87284,-1.36045 6.73493,-3.3027 9.42218,-5.3496 1.83379,-0.45788 8.78653,-4.32968 9.8519,-12.59834 0.71224,-2.052 1.51225,-3.90611 1.98927,-6.48739 7.30245,-8.24692 2.63262,-18.393 -2.55811,-21.54952 l -0.66404,-1.18272 c 0.0263,-8.49407 -3.85568,-11.95617 -8.38248,-14.58814 1.36961,-0.36652 2.78403,-0.66816 3.17211,-2.41494 2.35338,-0.61163 2.84585,-1.71762 3.082,-2.8896 0.6153,-0.41667 2.67559,-1.58625 2.45987,-3.59778 1.15347,-0.80834 1.7966,-1.84546 1.46942,-3.31528 1.23968,-1.37275 1.56596,-2.50701 1.03963,-3.55272 1.48789,-1.87663 0.82777,-2.84952 0.19253,-3.83434 1.11461,-2.05213 0.13098,-4.25279 -2.98495,-3.88423 -1.23904,-1.84886 -3.94108,-1.42895 -4.35889,-1.4203 -0.46758,-0.59346 -1.08448,-1.10178 -2.98364,-0.85543 -1.22987,-1.1136 -2.60511,-0.92357 -4.02359,-0.37656 -1.68436,-1.32915 -2.79896,-0.2637 -4.07205,0.13915 -2.0393,-0.66637 -2.50558,0.24636 -3.50754,0.61805 -2.22398,-0.46996 -2.89982,0.55324 -3.96597,1.63314 l -1.24018,-0.0245 c -3.35444,1.97683 -5.02085,6.00212 -5.61155,8.07142 -0.59098,-2.06969 -2.25358,-6.09499 -5.60736,-8.07142 l -1.24019,0.0245 c -1.06745,-1.0799 -1.74329,-2.10309 -3.96727,-1.63314 -1.00197,-0.37169 -1.46693,-1.28442 -3.50755,-0.61805 -0.83558,-0.26438 -1.60406,-0.81394 -2.50897,-0.78586 z"
       inkscape:connector-curvature="0"
       style="fill:#000000;stroke-width:1.15748477" />
    <path
       id="path4228"
       d="m 337.94755,429.74749 c 8.89958,4.58823 14.0734,8.29984 16.90773,11.46095 -1.45148,5.81771 -9.02374,6.08319 -11.79258,5.92 0.56692,-0.26388 1.03994,-0.57994 1.20767,-1.06559 -0.69476,-0.49375 -3.15824,-0.052 -4.87808,-1.01823 0.66065,-0.13687 0.96968,-0.2702 1.27871,-0.75775 -1.6249,-0.51824 -3.37513,-0.96483 -4.40447,-1.82333 0.5555,0.007 1.07416,0.12428 1.79961,-0.37887 -1.45541,-0.78431 -3.0084,-1.40589 -4.21495,-2.60472 0.75249,-0.0184 1.56372,-0.007 1.79962,-0.28416 -1.33203,-0.82524 -2.45594,-1.74303 -3.38626,-2.74683 1.05304,0.12711 1.49771,0.0177 1.75233,-0.16576 -1.00692,-1.03134 -2.28135,-1.90217 -2.88895,-3.17304 0.78188,0.26949 1.49719,0.37265 2.01284,-0.0237 -0.34216,-0.7719 -1.80812,-1.22719 -2.65213,-3.03105 0.8231,0.0798 1.69614,0.17958 1.87073,0 -0.38205,-1.55652 -1.03759,-2.43158 -1.68056,-3.33819 1.76164,-0.0262 4.43067,0.007 4.30978,-0.14211 l -1.08926,-1.11295 c 1.72076,-0.46329 3.48147,0.0744 4.75967,0.4736 0.57393,-0.45288 -0.0102,-1.02554 -0.71039,-1.61022 1.46235,0.19523 2.78377,0.53142 3.97815,0.99455 0.63816,-0.5762 -0.4144,-1.15242 -0.92352,-1.72862 2.25921,0.42863 3.21639,1.03088 4.16767,1.63393 0.69016,-0.66154 0.0395,-1.22375 -0.42624,-1.79962 1.70348,0.63092 2.58088,1.44546 3.50466,2.24952 0.31319,-0.42267 0.79567,-0.73247 0.21313,-1.75233 1.20946,0.69715 2.12038,1.51867 2.79425,2.43904 0.74832,-0.47648 0.44583,-1.1281 0.44991,-1.72862 1.25693,1.02246 2.05463,2.11054 3.03106,3.17303 0.19668,-0.14321 0.3689,-0.62891 0.52095,-1.39713 2.99871,2.90925 7.23592,10.23684 1.08927,13.14216 -5.2312,-4.31436 -11.47876,-7.45032 -18.40217,-9.80279 z"
       inkscape:connector-curvature="0"
       style="fill:#75a928;stroke-width:1.15748477" />
    <path
       id="path4230"
       d="m 385.16843,429.74749 c -8.89853,4.58863 -14.07209,8.29918 -16.90642,11.46095 1.45148,5.81771 9.02374,6.08319 11.79258,5.92 -0.56692,-0.26388 -1.03994,-0.57994 -1.20766,-1.06559 0.69476,-0.49375 3.15822,-0.052 4.87808,-1.01823 -0.66067,-0.13687 -0.96969,-0.2702 -1.27872,-0.75775 1.62489,-0.51824 3.37513,-0.96483 4.40448,-1.82333 -0.55552,0.007 -1.07417,0.12428 -1.79962,-0.37887 1.45541,-0.78431 3.0084,-1.40589 4.21495,-2.60472 -0.75248,-0.0184 -1.56373,-0.007 -1.79961,-0.28416 1.33203,-0.82524 2.45593,-1.74303 3.38626,-2.74683 -1.05305,0.12711 -1.49772,0.0177 -1.75234,-0.16576 1.00692,-1.03134 2.28135,-1.90217 2.88895,-3.17304 -0.78188,0.26949 -1.49719,0.37265 -2.01285,-0.0237 0.34217,-0.7719 1.80813,-1.22719 2.65214,-3.03105 -0.82311,0.0798 -1.69614,0.17958 -1.87073,0 0.38275,-1.55718 1.03831,-2.43223 1.68121,-3.33885 -1.76163,-0.0261 -4.43066,0.007 -4.30977,-0.14208 l 1.08926,-1.11295 c -1.72077,-0.46329 -3.48148,0.0744 -4.75968,0.4736 -0.57392,-0.45287 0.0102,-1.02554 0.71039,-1.61022 -1.46235,0.19523 -2.78377,0.53142 -3.97814,0.99456 -0.63817,-0.57621 0.4144,-1.15243 0.92351,-1.72863 -2.25921,0.42863 -3.21638,1.03088 -4.16766,1.63393 -0.69017,-0.66153 -0.0395,-1.22375 0.42623,-1.79962 -1.70348,0.63092 -2.58088,1.44546 -3.50466,2.24952 -0.31319,-0.42267 -0.79567,-0.73247 -0.21312,-1.75233 -1.20946,0.69715 -2.12038,1.51867 -2.79425,2.43904 -0.74832,-0.47648 -0.44583,-1.1281 -0.44992,-1.72862 -1.25693,1.02246 -2.05462,2.11055 -3.03105,3.17303 -0.19669,-0.14321 -0.36891,-0.62891 -0.52096,-1.39713 -2.9987,2.90925 -7.23591,10.23685 -1.08926,13.14216 5.22844,-4.31527 11.47561,-7.45098 18.39955,-9.80344 z"
       inkscape:connector-curvature="0"
       style="fill:#75a928;stroke-width:1.15748477" />
    <path
       id="path4232"
       d="m 372.33552,488.98882 a 10.660151,9.8299531 0 1 1 -21.32,0 10.660151,9.8299531 0 1 1 21.32,0 z"
       inkscape:connector-curvature="0"
       style="fill:#bc1142;stroke-width:1.15748477" />
    <path
       id="path4234"
       d="m 355.50731,460.90815 a 9.5611163,11.280944 34.034227 0 1 -12.43854,18.82289 9.5611163,11.280944 34.034227 1 1 12.43854,-18.82289 z"
       inkscape:connector-curvature="0"
       style="fill:#bc1142;stroke-width:1.15748477" />
    <path
       id="path4236"
       d="m 367.42926,460.38425 a 11.280944,9.5611163 55.965773 1 0 12.43854,18.82289 11.280944,9.5611163 55.965773 1 0 -12.43854,-18.82289 z"
       inkscape:connector-curvature="0"
       style="fill:#bc1142;stroke-width:1.15748477" />
    <path
       id="path4238"
       d="m 333.43149,465.63945 c 4.76885,-1.27833 1.60996,19.72895 -2.27021,18.0053 -4.26813,-3.43289 -5.64285,-13.48663 2.27021,-18.0053 z"
       inkscape:connector-curvature="0"
       style="fill:#bc1142;stroke-width:1.15748477" />
    <path
       id="path4240"
       d="m 388.54238,465.37749 c -4.76937,-1.27792 -1.60997,19.73027 2.27021,18.00662 4.26812,-3.43328 5.64285,-13.48794 -2.27021,-18.00662 z"
       inkscape:connector-curvature="0"
       style="fill:#bc1142;stroke-width:1.15748477" />
    <path
       id="path4242"
       d="m 372.3393,449.73369 c 8.22989,-1.38966 15.07799,3.49994 14.80163,12.42414 -0.27071,3.42123 -17.83373,-11.91478 -14.80163,-12.42414 z"
       inkscape:connector-curvature="0"
       style="fill:#bc1142;stroke-width:1.15748477" />
    <path
       id="path4244"
       d="m 349.60051,449.47173 c -8.23055,-1.38965 -15.07799,3.501 -14.80163,12.42441 0.27073,3.42111 17.83373,-11.91491 14.80163,-12.42441 z"
       inkscape:connector-curvature="0"
       style="fill:#bc1142;stroke-width:1.15748477" />
    <path
       id="path4246"
       d="m 361.42243,447.39052 c -4.91201,-0.12776 -9.6261,3.6456 -9.6375,5.83421 -0.0137,2.65934 3.88358,5.3822 9.6709,5.45123 5.91004,0.0423 9.68124,-2.17944 9.70023,-4.92392 0.0216,-3.10938 -5.37513,-6.40959 -9.73376,-6.36165 z"
       inkscape:connector-curvature="0"
       style="fill:#bc1142;stroke-width:1.15748477" />
    <path
       id="path4248"
       d="m 361.72236,501.9238 c 4.28254,-0.18691 10.02899,1.37944 10.04025,3.45725 0.0711,2.01769 -5.21154,6.57645 -10.32433,6.4883 -5.29498,0.22841 -10.48714,-4.33741 -10.41917,-5.91999 -0.0792,-2.32038 6.44744,-4.13204 10.70325,-4.02556 z"
       inkscape:connector-curvature="0"
       style="fill:#bc1142;stroke-width:1.15748477" />
    <path
       id="path4250"
       d="m 345.90436,489.60941 c 3.04899,3.67336 4.43892,10.12696 1.89444,12.02939 -2.40721,1.45226 -8.25308,0.85417 -12.40817,-5.11489 -2.80224,-5.00879 -2.44114,-10.10574 -0.47359,-11.60305 2.94225,-1.79229 7.4883,0.62855 10.98746,4.68855 z"
       inkscape:connector-curvature="0"
       style="fill:#bc1142;stroke-width:1.15748477" />
    <path
       id="path4252"
       d="m 376.93002,488.44503 c -3.2989,3.86406 -5.13584,10.91164 -2.72928,13.18145 2.30099,1.76347 8.47796,1.51698 13.04078,-4.81416 3.31318,-4.25215 2.20302,-11.35328 0.31052,-13.23908 -2.81128,-2.17447 -6.84705,0.60837 -10.62205,4.87074 z"
       inkscape:connector-curvature="0"
       style="fill:#bc1142;stroke-width:1.15748477" />
    <text
       id="text4257"
       y="421.36218"
       x="480"
       style="font-style:normal;font-variant:normal;font-weight:normal;font-stretch:normal;line-height:0%;font-family:Ubuntu;-inkscape-font-specification:'Ubuntu, Normal';text-align:start;letter-spacing:0px;word-spacing:0px;writing-mode:lr-tb;text-anchor:start;fill:#ffffff;fill-opacity:1;stroke:#000000;stroke-width:0.46299389;stroke-linecap:butt;stroke-linejoin:miter;stroke-miterlimit:4;stroke-dasharray:none;stroke-opacity:1"
       xml:space="preserve"><tspan
         style="font-size:15px;line-height:1.25;stroke-width:0.46299389"
         y="421.36218"
         x="480"
         id="tspan4261"
         sodipodi:role="line">High</tspan><tspan
         style="font-size:15px;line-height:1.25;stroke-width:0.46299389"
         y="440.11218"
         x="480"
         id="tspan4263"
         sodipodi:role="line">Performance</tspan><tspan
         style="font-size:15px;line-height:1.25;stroke-width:0.46299389"
         y="458.86218"
         x="480"
         id="tspan4265"
         sodipodi:role="line">Computing</tspan></text>
    <path
       id="path4271"
       d="m 202.1543,433.05273 c -10.33065,-0.003 -20.66785,0.005 -20.73047,0.0293 -0.0755,0.029 -0.082,1.90883 -0.082,20.77735 0,11.40987 0.016,20.76196 0.0351,20.78124 0.0193,0.0193 9.36773,0.0287 20.77344,0.0215 l 20.73633,-0.0137 0.0137,-20.75586 c 0.0105,-16.57056 -2.6e-4,-20.76554 -0.0527,-20.79883 -0.0379,-0.024 -10.36271,-0.0382 -20.69336,-0.041 z m -15.56446,5.29883 h 15.53711 15.53711 l -0.0117,5.23633 -0.0137,5.23633 h -1.91406 -1.91406 l -0.0625,-0.39453 c -0.22631,-1.43524 -1.38341,-2.5465 -3.09766,-2.97461 -0.554,-0.13836 -1.74432,-0.12518 -2.3457,0.0254 -1.04765,0.26235 -2.03535,0.9085 -2.50391,1.63867 l -0.16016,0.24805 0.0156,7.00195 0.0156,7 0.12109,0.41992 c 0.41732,1.44239 1.28779,2.53989 2.54101,3.20117 0.52071,0.27476 1.00373,0.42127 1.6543,0.50391 l 0.48438,0.0625 v 1.93359 1.93555 h -8.31055 c -4.57096,0 -8.32646,-0.0159 -8.3457,-0.0352 -0.0192,-0.0192 -0.0352,-0.89087 -0.0352,-1.9375 v -1.90234 l 0.35547,-0.0352 c 0.84244,-0.081 1.72438,-0.40823 2.40039,-0.89062 0.45123,-0.32199 1.05635,-0.98315 1.35937,-1.48828 0.28308,-0.4719 0.57422,-1.26712 0.65821,-1.79297 0.0356,-0.22301 0.0544,-2.70694 0.0547,-7.16992 l 0.002,-6.82813 -0.16211,-0.24414 c -0.30021,-0.45323 -0.89291,-0.94681 -1.48047,-1.23633 -0.8207,-0.4044 -1.258,-0.50334 -2.24219,-0.5 -0.97738,0.003 -1.38003,0.0936 -2.17773,0.48829 -1.12277,0.55563 -1.86288,1.48361 -2.03516,2.55078 l -0.0684,0.41992 h -1.91406 -1.91406 l -0.0137,-5.23633 z"
       style="fill:#ffffff;fill-opacity:1;stroke:#000000;stroke-width:1.15748477;stroke-miterlimit:4;stroke-dasharray:none;stroke-opacity:1"
       inkscape:connector-curvature="0" />
    <path
       inkscape:connector-curvature="0"
       id="path4294"
       d="m 186.58963,438.35197 0.0137,5.23633 0.0137,5.23633 h 1.91406 1.91406 l 0.0684,-0.41992 c 0.17228,-1.06717 0.91239,-1.99515 2.03516,-2.55078 0.7977,-0.39471 1.20035,-0.48529 2.17773,-0.48829 0.98419,-0.003 1.42149,0.0956 2.24219,0.5 0.58756,0.28952 1.18026,0.7831 1.48047,1.23633 l 0.16211,0.24414 -0.002,6.82813 c -3e-4,4.46298 -0.0191,6.94691 -0.0547,7.16992 -0.084,0.52585 -0.37512,1.32107 -0.6582,1.79297 -0.30302,0.50513 -0.90815,1.16629 -1.35938,1.48828 -0.67601,0.48239 -1.55795,0.80962 -2.40039,0.89062 l -0.35547,0.0352 v 1.90234 c 0,1.04662 0.016,1.9183 0.0352,1.9375 0.0192,0.0192 3.77474,0.0352 8.3457,0.0352 h 8.31055 v -1.93555 -1.93359 l -0.48438,-0.0625 c -0.65057,-0.0826 -1.13358,-0.22915 -1.65429,-0.50391 -1.25322,-0.66128 -2.1237,-1.75878 -2.54102,-3.20117 l -0.12109,-0.41992 -0.0156,-7 -0.0156,-7.00195 0.16015,-0.24805 c 0.46856,-0.73017 1.45626,-1.37632 2.50391,-1.63867 0.60138,-0.15056 1.7917,-0.16375 2.3457,-0.0254 1.71425,0.42811 2.87135,1.53937 3.09766,2.97461 l 0.0625,0.39453 h 1.91406 1.91406 l 0.0137,-5.23633 0.0117,-5.23633 h -15.53711 -15.5371 z"
       style="fill:#fe8100;stroke-width:1.15748477" />
    <path
       style="font-style:normal;font-variant:normal;font-weight:normal;font-stretch:normal;font-size:medium;line-height:125%;font-family:FontAwesome;-inkscape-font-specification:'FontAwesome, Normal';text-align:start;writing-mode:lr-tb;text-anchor:start;fill:none;fill-opacity:1;stroke:#000000;stroke-width:3.18308306;stroke-linecap:round;stroke-linejoin:miter;stroke-miterlimit:1;stroke-dasharray:none;stroke-dashoffset:0;stroke-opacity:1"
       d="m 262.08437,427.38327 v 81.07409 h 29.1063 c 9.08667,0 16.09174,-1.973 21.01519,-5.919 4.92346,-3.946 7.38518,-9.53919 7.38518,-16.77957 0,-5.50268 -1.50237,-10.08222 -4.50713,-13.73861 -2.96856,-3.69259 -7.14987,-6.11811 -12.54395,-7.27657 4.48904,-0.72404 7.89201,-2.55224 10.20893,-5.48459 2.31692,-2.93235 3.47538,-6.87835 3.47538,-11.83801 0,-6.40773 -2.26262,-11.34928 -6.78785,-14.82467 -4.52524,-3.47538 -10.96917,-5.21307 -19.3318,-5.21307 z m 144.22825,0 v 81.07409 h 29.10631 c 9.08666,0 16.09173,-1.973 21.01518,-5.919 4.92346,-3.946 7.38518,-9.53919 7.38518,-16.77957 0,-5.50268 -1.50237,-10.08222 -4.50713,-13.73861 -2.96856,-3.69259 -7.14987,-6.11811 -12.54395,-7.27657 4.48904,-0.72404 7.89201,-2.55224 10.20893,-5.48459 2.31692,-2.93235 3.47538,-6.87835 3.47538,-11.83801 0,-6.40773 -2.26262,-11.34929 -6.78785,-14.82467 -4.52524,-3.47538 -10.96917,-5.21307 -19.3318,-5.21307 z m -133.25908,9.01427 h 16.23654 c 5.35787,0 9.34008,1.01365 11.94662,3.04095 2.64273,2.02731 3.9641,5.08637 3.9641,9.17718 0,4.12702 -1.32137,7.20418 -3.9641,9.23148 -2.60654,1.9911 -6.58875,2.98665 -11.94662,2.98665 h -16.23654 z m 144.22825,0 h 16.23654 c 5.35787,0 9.34008,1.01365 11.94662,3.04095 2.64273,2.02731 3.9641,5.08637 3.9641,9.17718 0,4.12702 -1.32137,7.20418 -3.9641,9.23148 -2.60654,1.9911 -6.58875,2.98665 -11.94662,2.98665 h -16.23654 z m -144.22825,33.34192 h 17.5941 c 5.90091,0 10.26324,1.21276 13.08698,3.63829 2.85995,2.38932 4.28992,6.11812 4.28992,11.18638 0,5.03205 -1.42997,8.77895 -4.28992,11.24068 -2.82374,2.42552 -7.18607,3.63828 -13.08698,3.63828 h -17.5941 z m 144.22825,0 h 17.59411 c 5.90091,0 10.26323,1.21276 13.08697,3.63829 2.85995,2.38932 4.28992,6.11812 4.28992,11.18638 0,5.03205 -1.42997,8.77895 -4.28992,11.24068 -2.82374,2.42552 -7.18606,3.63828 -13.08697,3.63828 h -17.59411 z"
       id="path4341"
       inkscape:connector-curvature="0" />
    <path
       id="path4364"
       d="m 213.05859,481.92188 c -0.55924,0.005 -1.11842,0.0318 -1.49218,0.0801 -4.34442,0.56173 -7.72182,3.6615 -8.66993,7.95508 -0.18611,0.84282 -0.2517,1.4683 -0.25195,2.43359 -3.2e-4,1.29422 0.15526,2.29424 0.53516,3.45118 0.4942,1.50501 1.239,2.73277 2.35937,3.89062 1.6659,1.72161 3.77721,2.74268 6.25,3.02149 0.61828,0.0697 2.26622,0.0288 2.98438,-0.0742 2.22882,-0.31938 4.03933,-1.2284 5.77929,-2.89844 0.28758,-0.27604 0.52344,-0.52776 0.52344,-0.56055 0,-0.0328 -0.50527,-0.56438 -1.12305,-1.18164 l -1.12304,-1.12304 -0.43946,0.3789 c -1.27379,1.10345 -2.26086,1.66338 -3.48242,1.97266 -2.00733,0.50823 -4.06212,0.16014 -5.63476,-0.95508 -0.5587,-0.3962 -1.25889,-1.13387 -1.67383,-1.76367 -0.87697,-1.33108 -1.27264,-2.83299 -1.20508,-4.57617 0.0758,-1.95629 0.78269,-3.62121 2.08203,-4.91016 0.95375,-0.94613 1.94742,-1.47574 3.31641,-1.76758 0.59392,-0.12661 1.93276,-0.12509 2.57812,0.002 1.31392,0.25853 2.5204,0.87368 3.78321,1.92773 0.27442,0.22906 0.51839,0.41603 0.54297,0.41601 0.0717,0 2.1932,-2.46814 2.21093,-2.57226 0.0111,-0.0652 -0.1594,-0.245 -0.55078,-0.57813 -1.72503,-1.46831 -3.58431,-2.27418 -5.80078,-2.51562 -0.37842,-0.0412 -0.9388,-0.058 -1.49805,-0.0527 z m 18.23829,0.0566 c -0.85839,-0.0173 -1.9159,0.039 -2.4043,0.14453 -0.74295,0.16059 -1.26607,0.34162 -1.91211,0.66211 -1.54184,0.7649 -2.57992,2.0114 -3.03125,3.63867 -0.0972,0.35052 -0.11116,0.54231 -0.11133,1.47851 0,0.99659 0.01,1.11332 0.13672,1.58399 0.39788,1.47162 1.2422,2.41126 2.89258,3.2207 0.86926,0.42633 1.92327,0.77483 3.71289,1.22656 1.60185,0.40434 2.23055,0.60027 2.87109,0.89844 1.04685,0.48732 1.46474,0.96222 1.59571,1.80469 0.29609,1.90459 -1.47976,3.13818 -4.20704,2.92187 -1.89256,-0.15011 -3.45734,-0.80496 -5.19531,-2.17578 -0.24411,-0.19253 -0.47912,-0.34448 -0.52344,-0.33593 -0.0826,0.0159 -2.10351,2.37831 -2.10351,2.45898 0,0.16351 1.67141,1.34993 2.57226,1.82617 2.05407,1.08587 4.6296,1.59923 6.88477,1.37109 2.52118,-0.25504 4.39427,-1.3018 5.4082,-3.01757 0.92802,-1.57038 1.01226,-4.0105 0.19141,-5.53711 -0.53396,-0.99303 -1.33916,-1.69279 -2.69141,-2.33985 -0.81001,-0.38761 -1.76307,-0.70272 -3.41406,-1.1289 -0.77947,-0.20122 -1.7024,-0.46097 -2.04883,-0.57617 -1.30681,-0.43456 -2.06589,-0.93551 -2.37109,-1.5625 -0.13349,-0.27425 -0.1453,-0.34814 -0.14649,-0.92774 -0.001,-0.60143 0.007,-0.6448 0.16797,-0.98437 0.22345,-0.47175 0.58195,-0.81726 1.13086,-1.08594 0.57331,-0.28063 0.94107,-0.36967 1.67188,-0.40625 1.65344,-0.0828 3.39475,0.47352 5.14453,1.64258 0.31983,0.21369 0.60107,0.37612 0.625,0.36132 0.0902,-0.0557 1.83594,-2.55176 1.83594,-2.625 0,-0.0933 -0.59916,-0.54312 -1.26563,-0.94921 -1.37104,-0.83537 -2.95915,-1.36215 -4.65234,-1.54493 -0.21368,-0.0231 -0.47755,-0.0372 -0.76367,-0.043 z m -56.88282,0.26757 c -6.93622,-0.0126 -7.43286,-0.007 -7.49414,0.0762 -0.0519,0.0706 -0.0644,2.16398 -0.0644,10.04882 0,8.98386 0.008,9.96661 0.082,10.04102 0.0742,0.0742 0.82824,0.0827 7.51953,0.082 4.09015,-5.3e-4 7.46542,-0.0198 7.50195,-0.043 0.0516,-0.0328 0.0635,-0.38694 0.0527,-1.58789 l -0.0137,-1.54492 -5.74805,-0.0254 -5.74805,-0.0274 -0.0137,-2.68945 -0.0137,-2.68945 h 4.98437 c 4.46023,0 4.99063,-0.009 5.06446,-0.082 0.0711,-0.0711 0.0827,-0.28366 0.082,-1.53516 -4.2e-4,-0.79905 -0.0182,-1.48359 -0.041,-1.51953 -0.0325,-0.0512 -1.12484,-0.0676 -5.05273,-0.0781 l -5.00977,-0.0137 -0.0137,-2.61132 -0.0137,-2.61133 5.68359,-0.0137 5.68164,-0.0117 v -1.57618 -1.57421 z m 18.52735,0 -7.42774,0.0137 -0.0117,10.07421 c -0.0106,8.02521 -0.002,10.08394 0.0508,10.11719 0.0759,0.0482 14.8436,0.0597 14.96875,0.0117 0.0731,-0.0281 0.084,-0.2194 0.084,-1.60156 v -1.56836 l -5.76172,-0.0137 -5.75977,-0.0117 -0.0137,-2.69141 -0.0137,-2.68945 h 4.97656 c 3.89877,0 4.9962,-0.015 5.06641,-0.0664 0.0815,-0.0597 0.089,-0.20341 0.0762,-1.58789 l -0.0137,-1.52148 -5.03906,-0.0274 -5.03907,-0.0254 v -2.59765 -2.59961 l 5.66602,-0.0117 c 4.45279,-0.0105 5.6744,-0.0288 5.70703,-0.0801 0.0732,-0.11534 0.0533,-2.94519 -0.0215,-3.04687 -0.0613,-0.0833 -0.55792,-0.0889 -7.49414,-0.0762 z"
       style="fill:#ffffff;fill-opacity:1;stroke:#000000;stroke-width:0.57874238;stroke-miterlimit:4;stroke-dasharray:none;stroke-opacity:1"
       inkscape:connector-curvature="0" />
  </g>
</svg>
