<?xml version="1.0" encoding="UTF-8" standalone="no"?>
<svg
   xmlns:dc="http://purl.org/dc/elements/1.1/"
   xmlns:cc="http://creativecommons.org/ns#"
   xmlns:rdf="http://www.w3.org/1999/02/22-rdf-syntax-ns#"
   xmlns:svg="http://www.w3.org/2000/svg"
   xmlns="http://www.w3.org/2000/svg"
   xmlns:sodipodi="http://sodipodi.sourceforge.net/DTD/sodipodi-0.dtd"
   xmlns:inkscape="http://www.inkscape.org/namespaces/inkscape"
   width="5913.4951"
   height="1400.1644"
   viewBox="0 0 455.94467 107.95603"
   version="1.1"
   id="svg16"
   sodipodi:docname="skip-barber-header.svg"
   inkscape:export-filename="/home/ayoung48/Data/UTK/website/assets/images/skip-barber-header.png"
   inkscape:export-xdpi="20.779589"
   inkscape:export-ydpi="20.779589"
   inkscape:version="0.92.3 (2405546, 2018-03-11)">
  <metadata
     id="metadata22">
    <rdf:RDF>
      <cc:Work
         rdf:about="">
        <dc:format>image/svg+xml</dc:format>
        <dc:type
           rdf:resource="http://purl.org/dc/dcmitype/StillImage" />
        <dc:title></dc:title>
      </cc:Work>
    </rdf:RDF>
  </metadata>
  <defs
     id="defs20" />
  <sodipodi:namedview
     pagecolor="#ffffff"
     bordercolor="#666666"
     borderopacity="1"
     objecttolerance="10"
     gridtolerance="10"
     guidetolerance="10"
     inkscape:pageopacity="0"
     inkscape:pageshadow="2"
     inkscape:window-width="2525"
     inkscape:window-height="1376"
     id="namedview18"
     showgrid="false"
     inkscape:zoom="0.26700352"
     inkscape:cx="2953.6857"
     inkscape:cy="142.32551"
     inkscape:window-x="1315"
     inkscape:window-y="27"
     inkscape:window-maximized="1"
     inkscape:current-layer="svg16"
     fit-margin-top="0"
     fit-margin-left="0"
     fit-margin-right="0"
     fit-margin-bottom="0" />
  <rect
     style="fill:#c9322d;fill-opacity:1;stroke:#000000;stroke-width:0.07237208;stroke-miterlimit:4;stroke-dasharray:none;stroke-opacity:1"
     id="rect829"
     width="455.87228"
     height="107.88367"
     x="0.036186039"
     y="0.036186039" />
  <g
     id="g836"
     transform="matrix(0.73556303,0,0,0.73556303,157.07987,-16.914074)"
     inkscape:export-xdpi="20.779589"
     inkscape:export-ydpi="20.779589">
    <path
       id="path4"
       d="M 168.357,150.43 H 4.661 L 24.399,42.326 h 163.697 z"
       inkscape:connector-curvature="0"
       style="clip-rule:evenodd;fill:#ffffff;fill-rule:evenodd" />
    <path
       id="path8"
       d="m 16.975,136.488 -1.268,6.699 h -5.251 l 3.622,-19.557 h 7.605 c 5.251,0 6.7,1.811 6.156,5.613 -0.543,2.174 -1.63,4.164 -3.622,4.709 1.449,0.904 2.535,1.268 1.811,5.25 -0.543,2.535 -0.725,3.441 -0.181,3.441 v 0.543 h -5.433 c 0,-0.361 0.181,-1.629 0.362,-3.441 0.543,-2.535 0.362,-3.258 -2.173,-3.258 h -1.628 z m 0.724,-4.347 h 2.173 c 1.629,0 2.535,-0.543 2.897,-1.811 0.181,-1.447 -0.543,-2.172 -1.811,-2.172 h -2.535 z m 17.203,11.047 v -1.449 c -1.63,1.449 -3.079,1.992 -4.708,1.992 -2.173,0 -3.984,-1.449 -3.441,-4.346 1.086,-6.52 8.873,-3.621 9.417,-6.156 0.181,-1.088 -0.725,-1.268 -1.268,-1.268 -0.725,0 -1.63,0.18 -1.811,1.447 h -4.527 c 0.543,-3.078 2.535,-4.889 7.243,-4.889 5.613,0 5.432,2.535 4.708,5.977 l -1.086,6.699 c -0.181,0.725 -0.181,1.086 0.181,1.811 v 0.182 z m 0.543,-6.338 c -1.63,0.906 -3.622,0.543 -3.803,2.354 -0.181,0.725 0.181,1.268 1.268,1.268 1.63,-0.001 2.354,-1.63 2.535,-3.622 z m 14.305,-2.354 c 0,-0.725 0,-1.268 -0.362,-1.631 -0.181,-0.361 -0.543,-0.543 -1.086,-0.543 -1.63,0 -2.354,2.174 -2.716,3.984 -0.362,2.172 0,3.439 1.448,3.439 1.268,0 1.811,-0.904 2.173,-1.99 h 4.708 c -1.268,4.346 -4.346,5.975 -7.605,5.975 -3.803,0 -6.157,-2.717 -5.251,-7.424 0.725,-4.889 4.165,-7.787 7.968,-7.787 3.078,0 5.794,1.631 5.432,5.977 z m 3.622,8.692 2.535,-14.126 h 4.708 l -2.535,14.126 z m 7.967,-14.126 h 4.346 l -0.362,2.174 c 1.268,-1.811 2.536,-2.717 4.347,-2.717 3.078,0 4.164,2.174 3.44,6.158 l -1.629,8.51 h -4.527 l 1.268,-7.424 c 0.362,-1.449 0.181,-2.717 -1.086,-2.717 -1.449,0 -1.992,1.086 -2.354,2.896 l -1.268,7.244 h -4.708 z m 16.117,14.85 c 0,0.182 0,0.543 0.181,0.725 0.182,0.18 0.544,0.361 0.906,0.361 1.449,0 1.992,-0.725 2.354,-2.896 l 0.362,-1.088 c -0.906,0.725 -1.992,1.449 -3.622,1.449 -3.259,0 -4.527,-3.078 -3.983,-6.699 0.725,-3.441 2.716,-7.244 6.519,-7.244 1.448,0 2.535,0.906 3.259,2.355 l 0.181,-1.812 h 4.165 l -1.992,11.408 c -0.905,4.346 -1.811,7.605 -7.605,7.605 -4.165,0 -5.433,-1.992 -5.433,-4.164 z m 1.629,-7.969 c -0.181,0.906 -0.362,2.355 1.448,2.717 1.268,0.182 2.173,-1.449 2.354,-2.896 0.362,-1.631 0,-3.078 -1.449,-3.078 -1.266,0 -1.991,1.267 -2.353,3.257 z m 22.093,-6.699 c 0,-0.543 -0.182,-1.086 -0.545,-1.268 -0.361,-0.182 -0.723,-0.361 -1.266,-0.361 -1.088,0 -1.812,0.361 -1.812,1.086 -0.543,3.078 9.055,1.086 7.787,8.33 -0.906,4.527 -4.346,6.699 -8.873,6.699 -4.165,0 -6.338,-3.078 -5.976,-6.52 h 5.07 c 0,0.725 0.181,1.268 0.724,1.449 0.362,0.363 0.906,0.543 1.267,0.543 1.449,0 2.355,-0.543 2.535,-1.447 0.543,-2.898 -9.053,-0.906 -7.786,-8.33 0.724,-4.166 4.165,-6.338 8.149,-6.338 4.527,0 5.975,2.896 5.795,6.156 h -5.069 z m 13.58,5.252 c 0.182,-0.725 0,-1.268 -0.182,-1.631 -0.18,-0.361 -0.543,-0.543 -1.086,-0.543 -1.811,0 -2.354,2.174 -2.717,3.984 -0.361,2.172 0,3.439 1.449,3.439 1.086,0 1.811,-0.904 2.174,-1.99 h 4.707 c -1.268,4.346 -4.346,5.975 -7.605,5.975 -3.803,0 -6.338,-2.717 -5.432,-7.424 0.906,-4.889 4.164,-7.787 8.148,-7.787 3.078,0 5.795,1.631 5.252,5.977 z m 7.605,-11.408 h 4.527 l -1.268,7.605 c 1.268,-1.449 2.354,-2.174 3.984,-2.174 3.078,0 4.164,2.174 3.439,6.158 l -1.449,8.51 h -4.707 l 1.268,-7.424 c 0.361,-1.449 0.182,-2.717 -1.086,-2.717 -1.449,0 -1.992,1.086 -2.717,2.896 l -1.268,7.244 h -4.346 z m 19.196,5.432 c 4.164,0 6.156,3.078 5.25,7.424 -0.904,5.252 -4.164,7.787 -7.967,7.787 -3.803,0 -6.156,-2.535 -5.252,-7.424 0.906,-5.071 3.984,-7.787 7.969,-7.787 z m -3.803,7.423 c -0.543,3.26 0.543,4.348 1.992,4.348 1.447,0 2.896,-1.088 3.439,-4.348 0.543,-2.535 -0.361,-4.164 -1.811,-3.982 -1.81,0 -3.259,2.172 -3.62,3.982 z m 17.926,-7.423 c 4.166,0 6.156,3.078 5.252,7.424 -0.906,5.252 -4.164,7.787 -7.967,7.787 -3.803,0 -6.158,-2.535 -5.434,-7.424 0.906,-5.071 4.166,-7.787 8.149,-7.787 z m -3.803,7.423 c -0.543,3.26 0.543,4.348 1.992,4.348 1.449,0 2.898,-1.088 3.441,-4.348 0.543,-2.535 -0.363,-4.164 -1.811,-3.982 -1.991,0 -3.259,2.172 -3.622,3.982 z m 8.512,7.245 3.621,-20.1 h 4.709 l -3.623,20.1 z"
       inkscape:connector-curvature="0"
       style="clip-rule:evenodd;fill:#c9322d;fill-rule:evenodd" />
    <path
       id="path10"
       d="m 28.564,106.246 c 0,-0.723 -0.362,-1.086 -0.725,-1.266 -0.362,-0.363 -0.905,-0.363 -1.63,-0.363 -1.268,0 -1.992,0.363 -2.173,1.086 -0.543,2.898 11.046,1.088 9.778,8.148 -0.724,4.709 -4.889,6.883 -10.321,6.883 -5.07,0 -7.968,-3.08 -7.424,-6.52 h 5.976 c 0.181,0.543 0.362,1.086 0.905,1.449 0.362,0.361 1.086,0.543 1.63,0.543 1.629,0 2.897,-0.543 2.897,-1.449 0.543,-3.078 -11.046,-0.906 -9.597,-8.33 0.724,-4.164 4.527,-6.338 9.416,-6.338 5.432,0 7.424,2.717 7.424,6.156 h -6.156 z m 11.408,9.961 -0.724,3.982 h -5.614 l 3.441,-19.556 h 5.613 l -1.811,9.597 4.346,-4.345 h 6.7 l -6.338,5.613 4.527,8.691 h -6.881 l -2.173,-5.07 z m 10.864,3.982 2.536,-14.305 h 5.613 l -2.535,14.305 z m 3.441,-19.556 h 5.613 l -0.724,3.984 h -5.614 z m 10.684,5.252 -0.543,2.174 h 0.181 c 1.086,-1.812 3.26,-2.535 4.889,-2.535 4.346,0 5.795,3.439 5.07,7.424 -1.086,5.613 -4.889,7.605 -7.967,7.605 -1.63,0 -2.716,-0.543 -3.441,-1.811 l -1.086,6.338 H 56.45 l 3.44,-19.195 z m 3.803,7.062 c 0.543,-2.174 -0.362,-3.26 -1.811,-3.26 -1.268,0 -2.535,1.268 -2.897,3.26 -0.362,1.992 0.362,3.26 1.812,3.26 1.447,0 2.715,-1.268 2.896,-3.26 z m 9.416,7.242 3.44,-19.557 h 9.417 c 4.346,0 7.606,1.088 6.881,4.891 -0.182,1.99 -1.811,3.439 -3.26,4.346 1.992,0.543 2.896,2.354 2.535,4.346 -0.724,4.346 -4.346,5.975 -9.417,5.975 H 78.18 Z m 7.786,-8.148 -0.543,3.623 h 2.716 c 1.63,0 2.897,-0.363 3.078,-1.812 0.362,-1.811 -1.086,-1.811 -3.078,-1.811 z m 1.268,-6.881 -0.543,3.26 h 2.716 c 1.268,0 2.173,-0.543 2.354,-1.629 0.362,-1.631 -0.906,-1.631 -2.354,-1.631 z m 19.918,15.029 v -1.629 c -1.811,1.629 -3.439,1.992 -5.613,1.992 -2.717,0 -4.889,-1.268 -4.346,-4.346 1.086,-6.338 10.684,-3.441 11.227,-6.158 0.182,-1.086 -1.086,-1.086 -1.629,-1.086 -0.725,0 -1.811,0.182 -2.174,1.268 h -5.432 c 0.543,-2.896 2.896,-4.707 8.51,-4.707 6.701,0 6.701,2.535 6.158,5.975 l -1.268,6.52 c 0,0.904 -0.182,1.268 0.543,1.811 v 0.361 h -5.976 z m 0.543,-6.337 c -1.992,0.906 -4.346,0.545 -4.707,2.355 0,0.725 0.543,1.086 1.629,1.086 1.992,0 2.899,-1.449 3.078,-3.441 z m 8.694,-7.967 h 5.07 l -0.363,2.898 c 1.086,-2.174 2.717,-3.26 4.889,-3.26 h 0.725 l -0.904,5.793 c -0.363,-0.18 -0.725,-0.18 -1.268,-0.18 -2.174,0 -3.623,1.086 -4.166,4.164 l -0.904,4.889 h -5.613 z m 16.84,1.449 c 1.268,-1.268 2.717,-1.811 4.346,-1.811 3.621,0 5.613,3.078 4.889,7.424 -0.725,4.164 -3.078,7.605 -7.785,7.605 -2.355,0 -3.441,-1.086 -3.984,-2.354 l -0.363,1.99 h -5.068 l 3.439,-19.557 h 5.613 z m 3.621,5.795 c 0.182,-1.449 0,-3.26 -1.811,-3.26 -1.811,0 -2.717,1.629 -3.078,3.26 -0.182,1.447 0,3.439 1.811,3.439 1.811,0 2.716,-1.81 3.078,-3.439 z m 11.951,1.267 c -0.361,1.629 0.725,2.715 2.174,2.715 0.904,0 1.811,-0.361 2.354,-1.268 h 5.432 c -1.629,3.623 -5.432,4.709 -8.691,4.709 -4.527,0 -7.605,-2.535 -6.699,-7.424 0.725,-4.709 4.707,-7.605 9.416,-7.605 5.252,0 7.787,3.621 6.699,8.873 z m 5.433,-2.898 c 0.18,-1.449 -0.725,-2.535 -2.174,-2.535 -1.629,0 -2.717,0.906 -3.078,2.535 z m 7.786,-5.613 h 5.07 l -0.543,2.898 c 1.268,-2.174 2.898,-3.26 5.07,-3.26 h 0.361 l -0.904,5.793 c -0.363,-0.18 -0.543,-0.18 -0.906,-0.18 -2.354,0 -3.621,1.086 -4.164,4.164 l -0.906,4.889 h -5.613 z"
       inkscape:connector-curvature="0"
       style="clip-rule:evenodd;fill-rule:evenodd" />
    <path
       id="path12"
       d="m 177.773,73.652 -4.345,23.903 H 18.786 l 4.345,-23.903 z"
       inkscape:connector-curvature="0"
       style="clip-rule:evenodd;fill:#c9322d;fill-rule:evenodd" />
    <path
       id="path14"
       d="m 182.844,46.671 -4.528,24.084 H 23.675 l 4.346,-24.084 z"
       inkscape:connector-curvature="0"
       style="clip-rule:evenodd;fill-rule:evenodd" />
  </g>
  <g
     inkscape:export-ydpi="20.779589"
     inkscape:export-xdpi="20.779589"
     transform="matrix(0.73556303,0,0,0.73556303,157.07987,-16.914074)"
     id="g828">
    <path
       style="clip-rule:evenodd;fill:#ffffff;fill-rule:evenodd"
       inkscape:connector-curvature="0"
       d="M 168.357,150.43 H 4.661 L 24.399,42.326 h 163.697 z"
       id="path818" />
    <path
       style="clip-rule:evenodd;fill:#c9322d;fill-rule:evenodd"
       inkscape:connector-curvature="0"
       d="m 16.975,136.488 -1.268,6.699 h -5.251 l 3.622,-19.557 h 7.605 c 5.251,0 6.7,1.811 6.156,5.613 -0.543,2.174 -1.63,4.164 -3.622,4.709 1.449,0.904 2.535,1.268 1.811,5.25 -0.543,2.535 -0.725,3.441 -0.181,3.441 v 0.543 h -5.433 c 0,-0.361 0.181,-1.629 0.362,-3.441 0.543,-2.535 0.362,-3.258 -2.173,-3.258 h -1.628 z m 0.724,-4.347 h 2.173 c 1.629,0 2.535,-0.543 2.897,-1.811 0.181,-1.447 -0.543,-2.172 -1.811,-2.172 h -2.535 z m 17.203,11.047 v -1.449 c -1.63,1.449 -3.079,1.992 -4.708,1.992 -2.173,0 -3.984,-1.449 -3.441,-4.346 1.086,-6.52 8.873,-3.621 9.417,-6.156 0.181,-1.088 -0.725,-1.268 -1.268,-1.268 -0.725,0 -1.63,0.18 -1.811,1.447 h -4.527 c 0.543,-3.078 2.535,-4.889 7.243,-4.889 5.613,0 5.432,2.535 4.708,5.977 l -1.086,6.699 c -0.181,0.725 -0.181,1.086 0.181,1.811 v 0.182 z m 0.543,-6.338 c -1.63,0.906 -3.622,0.543 -3.803,2.354 -0.181,0.725 0.181,1.268 1.268,1.268 1.63,-0.001 2.354,-1.63 2.535,-3.622 z m 14.305,-2.354 c 0,-0.725 0,-1.268 -0.362,-1.631 -0.181,-0.361 -0.543,-0.543 -1.086,-0.543 -1.63,0 -2.354,2.174 -2.716,3.984 -0.362,2.172 0,3.439 1.448,3.439 1.268,0 1.811,-0.904 2.173,-1.99 h 4.708 c -1.268,4.346 -4.346,5.975 -7.605,5.975 -3.803,0 -6.157,-2.717 -5.251,-7.424 0.725,-4.889 4.165,-7.787 7.968,-7.787 3.078,0 5.794,1.631 5.432,5.977 z m 3.622,8.692 2.535,-14.126 h 4.708 l -2.535,14.126 z m 7.967,-14.126 h 4.346 l -0.362,2.174 c 1.268,-1.811 2.536,-2.717 4.347,-2.717 3.078,0 4.164,2.174 3.44,6.158 l -1.629,8.51 h -4.527 l 1.268,-7.424 c 0.362,-1.449 0.181,-2.717 -1.086,-2.717 -1.449,0 -1.992,1.086 -2.354,2.896 l -1.268,7.244 h -4.708 z m 16.117,14.85 c 0,0.182 0,0.543 0.181,0.725 0.182,0.18 0.544,0.361 0.906,0.361 1.449,0 1.992,-0.725 2.354,-2.896 l 0.362,-1.088 c -0.906,0.725 -1.992,1.449 -3.622,1.449 -3.259,0 -4.527,-3.078 -3.983,-6.699 0.725,-3.441 2.716,-7.244 6.519,-7.244 1.448,0 2.535,0.906 3.259,2.355 l 0.181,-1.812 h 4.165 l -1.992,11.408 c -0.905,4.346 -1.811,7.605 -7.605,7.605 -4.165,0 -5.433,-1.992 -5.433,-4.164 z m 1.629,-7.969 c -0.181,0.906 -0.362,2.355 1.448,2.717 1.268,0.182 2.173,-1.449 2.354,-2.896 0.362,-1.631 0,-3.078 -1.449,-3.078 -1.266,0 -1.991,1.267 -2.353,3.257 z m 22.093,-6.699 c 0,-0.543 -0.182,-1.086 -0.545,-1.268 -0.361,-0.182 -0.723,-0.361 -1.266,-0.361 -1.088,0 -1.812,0.361 -1.812,1.086 -0.543,3.078 9.055,1.086 7.787,8.33 -0.906,4.527 -4.346,6.699 -8.873,6.699 -4.165,0 -6.338,-3.078 -5.976,-6.52 h 5.07 c 0,0.725 0.181,1.268 0.724,1.449 0.362,0.363 0.906,0.543 1.267,0.543 1.449,0 2.355,-0.543 2.535,-1.447 0.543,-2.898 -9.053,-0.906 -7.786,-8.33 0.724,-4.166 4.165,-6.338 8.149,-6.338 4.527,0 5.975,2.896 5.795,6.156 h -5.069 z m 13.58,5.252 c 0.182,-0.725 0,-1.268 -0.182,-1.631 -0.18,-0.361 -0.543,-0.543 -1.086,-0.543 -1.811,0 -2.354,2.174 -2.717,3.984 -0.361,2.172 0,3.439 1.449,3.439 1.086,0 1.811,-0.904 2.174,-1.99 h 4.707 c -1.268,4.346 -4.346,5.975 -7.605,5.975 -3.803,0 -6.338,-2.717 -5.432,-7.424 0.906,-4.889 4.164,-7.787 8.148,-7.787 3.078,0 5.795,1.631 5.252,5.977 z m 7.605,-11.408 h 4.527 l -1.268,7.605 c 1.268,-1.449 2.354,-2.174 3.984,-2.174 3.078,0 4.164,2.174 3.439,6.158 l -1.449,8.51 h -4.707 l 1.268,-7.424 c 0.361,-1.449 0.182,-2.717 -1.086,-2.717 -1.449,0 -1.992,1.086 -2.717,2.896 l -1.268,7.244 h -4.346 z m 19.196,5.432 c 4.164,0 6.156,3.078 5.25,7.424 -0.904,5.252 -4.164,7.787 -7.967,7.787 -3.803,0 -6.156,-2.535 -5.252,-7.424 0.906,-5.071 3.984,-7.787 7.969,-7.787 z m -3.803,7.423 c -0.543,3.26 0.543,4.348 1.992,4.348 1.447,0 2.896,-1.088 3.439,-4.348 0.543,-2.535 -0.361,-4.164 -1.811,-3.982 -1.81,0 -3.259,2.172 -3.62,3.982 z m 17.926,-7.423 c 4.166,0 6.156,3.078 5.252,7.424 -0.906,5.252 -4.164,7.787 -7.967,7.787 -3.803,0 -6.158,-2.535 -5.434,-7.424 0.906,-5.071 4.166,-7.787 8.149,-7.787 z m -3.803,7.423 c -0.543,3.26 0.543,4.348 1.992,4.348 1.449,0 2.898,-1.088 3.441,-4.348 0.543,-2.535 -0.363,-4.164 -1.811,-3.982 -1.991,0 -3.259,2.172 -3.622,3.982 z m 8.512,7.245 3.621,-20.1 h 4.709 l -3.623,20.1 z"
       id="path820" />
    <path
       style="clip-rule:evenodd;fill-rule:evenodd"
       inkscape:connector-curvature="0"
       d="m 28.564,106.246 c 0,-0.723 -0.362,-1.086 -0.725,-1.266 -0.362,-0.363 -0.905,-0.363 -1.63,-0.363 -1.268,0 -1.992,0.363 -2.173,1.086 -0.543,2.898 11.046,1.088 9.778,8.148 -0.724,4.709 -4.889,6.883 -10.321,6.883 -5.07,0 -7.968,-3.08 -7.424,-6.52 h 5.976 c 0.181,0.543 0.362,1.086 0.905,1.449 0.362,0.361 1.086,0.543 1.63,0.543 1.629,0 2.897,-0.543 2.897,-1.449 0.543,-3.078 -11.046,-0.906 -9.597,-8.33 0.724,-4.164 4.527,-6.338 9.416,-6.338 5.432,0 7.424,2.717 7.424,6.156 h -6.156 z m 11.408,9.961 -0.724,3.982 h -5.614 l 3.441,-19.556 h 5.613 l -1.811,9.597 4.346,-4.345 h 6.7 l -6.338,5.613 4.527,8.691 h -6.881 l -2.173,-5.07 z m 10.864,3.982 2.536,-14.305 h 5.613 l -2.535,14.305 z m 3.441,-19.556 h 5.613 l -0.724,3.984 h -5.614 z m 10.684,5.252 -0.543,2.174 h 0.181 c 1.086,-1.812 3.26,-2.535 4.889,-2.535 4.346,0 5.795,3.439 5.07,7.424 -1.086,5.613 -4.889,7.605 -7.967,7.605 -1.63,0 -2.716,-0.543 -3.441,-1.811 l -1.086,6.338 H 56.45 l 3.44,-19.195 z m 3.803,7.062 c 0.543,-2.174 -0.362,-3.26 -1.811,-3.26 -1.268,0 -2.535,1.268 -2.897,3.26 -0.362,1.992 0.362,3.26 1.812,3.26 1.447,0 2.715,-1.268 2.896,-3.26 z m 9.416,7.242 3.44,-19.557 h 9.417 c 4.346,0 7.606,1.088 6.881,4.891 -0.182,1.99 -1.811,3.439 -3.26,4.346 1.992,0.543 2.896,2.354 2.535,4.346 -0.724,4.346 -4.346,5.975 -9.417,5.975 H 78.18 Z m 7.786,-8.148 -0.543,3.623 h 2.716 c 1.63,0 2.897,-0.363 3.078,-1.812 0.362,-1.811 -1.086,-1.811 -3.078,-1.811 z m 1.268,-6.881 -0.543,3.26 h 2.716 c 1.268,0 2.173,-0.543 2.354,-1.629 0.362,-1.631 -0.906,-1.631 -2.354,-1.631 z m 19.918,15.029 v -1.629 c -1.811,1.629 -3.439,1.992 -5.613,1.992 -2.717,0 -4.889,-1.268 -4.346,-4.346 1.086,-6.338 10.684,-3.441 11.227,-6.158 0.182,-1.086 -1.086,-1.086 -1.629,-1.086 -0.725,0 -1.811,0.182 -2.174,1.268 h -5.432 c 0.543,-2.896 2.896,-4.707 8.51,-4.707 6.701,0 6.701,2.535 6.158,5.975 l -1.268,6.52 c 0,0.904 -0.182,1.268 0.543,1.811 v 0.361 h -5.976 z m 0.543,-6.337 c -1.992,0.906 -4.346,0.545 -4.707,2.355 0,0.725 0.543,1.086 1.629,1.086 1.992,0 2.899,-1.449 3.078,-3.441 z m 8.694,-7.967 h 5.07 l -0.363,2.898 c 1.086,-2.174 2.717,-3.26 4.889,-3.26 h 0.725 l -0.904,5.793 c -0.363,-0.18 -0.725,-0.18 -1.268,-0.18 -2.174,0 -3.623,1.086 -4.166,4.164 l -0.904,4.889 h -5.613 z m 16.84,1.449 c 1.268,-1.268 2.717,-1.811 4.346,-1.811 3.621,0 5.613,3.078 4.889,7.424 -0.725,4.164 -3.078,7.605 -7.785,7.605 -2.355,0 -3.441,-1.086 -3.984,-2.354 l -0.363,1.99 h -5.068 l 3.439,-19.557 h 5.613 z m 3.621,5.795 c 0.182,-1.449 0,-3.26 -1.811,-3.26 -1.811,0 -2.717,1.629 -3.078,3.26 -0.182,1.447 0,3.439 1.811,3.439 1.811,0 2.716,-1.81 3.078,-3.439 z m 11.951,1.267 c -0.361,1.629 0.725,2.715 2.174,2.715 0.904,0 1.811,-0.361 2.354,-1.268 h 5.432 c -1.629,3.623 -5.432,4.709 -8.691,4.709 -4.527,0 -7.605,-2.535 -6.699,-7.424 0.725,-4.709 4.707,-7.605 9.416,-7.605 5.252,0 7.787,3.621 6.699,8.873 z m 5.433,-2.898 c 0.18,-1.449 -0.725,-2.535 -2.174,-2.535 -1.629,0 -2.717,0.906 -3.078,2.535 z m 7.786,-5.613 h 5.07 l -0.543,2.898 c 1.268,-2.174 2.898,-3.26 5.07,-3.26 h 0.361 l -0.904,5.793 c -0.363,-0.18 -0.543,-0.18 -0.906,-0.18 -2.354,0 -3.621,1.086 -4.164,4.164 l -0.906,4.889 h -5.613 z"
       id="path822" />
    <path
       style="clip-rule:evenodd;fill:#c9322d;fill-rule:evenodd"
       inkscape:connector-curvature="0"
       d="m 177.773,73.652 -4.345,23.903 H 18.786 l 4.345,-23.903 z"
       id="path824" />
    <path
       style="clip-rule:evenodd;fill-rule:evenodd"
       inkscape:connector-curvature="0"
       d="m 182.844,46.671 -4.528,24.084 H 23.675 l 4.346,-24.084 z"
       id="path826" />
  </g>
</svg>
