<svg xmlns="http://www.w3.org/2000/svg" width="755.08" height="176.28" viewBox="0 0 755.08 176.28"><defs><mask id="a" width="563.14" height="77.29" x="191.94" y="47.72" maskUnits="userSpaceOnUse"><path fill="#fff" d="M755.08 125.01V47.72H191.94v77.29h563.14z"/></mask><mask id="b" width="754.9" height="177.96" x="0" y="0" maskUnits="userSpaceOnUse"><path fill="#fff" d="M0 177.96h754.9V0H0v177.96z"/></mask></defs><path fill="#58595b" d="M718.32 54c.62-.57 2-.85 4.12-.85h8.09q8 0 11 .82a5.49 5.49 0 0 1 4 3.27 9.06 9.06 0 0 1 .62 3.32V62c0 1.13.33 1.67 1 1.63a1.18 1.18 0 0 0 1.16-.84 23.29 23.29 0 0 0 .52-3.94l.21-3.2c.17-2.39.31-3.84.42-4.34a6.81 6.81 0 0 0 .15-1.26c0-1-.57-1.57-1.7-1.57a14.1 14.1 0 0 0-2.07.22c-.45.07-1.69.14-3.72.22l-7.33.38c-3.24.14-7 .22-11.15.22a152.52 152.52 0 0 1-17.77-.88 29.28 29.28 0 0 0-3.45-.27c-1.55 0-2.33.5-2.33 1.49q0 1 1.5 1 4.69 0 6.32 2.7T709.49 64v49.68q0 6.54-3.72 7.64l-2 .6c-.9.25-1.34.67-1.34 1.28q0 1.17 1.65 1.17a17.46 17.46 0 0 0 2.68-.38 85.5 85.5 0 0 1 12.76-.65q6.45 0 16.31 1c1.69.14 3 .22 4 .22a13.93 13.93 0 0 0 11.46-5.87q3.77-4.89 3.77-8.42c0-1-.32-1.45-1-1.41-.39 0-.77.36-1.17 1q-5.78 9.65-26 9.65-6.39 0-8-1.15t-1.57-5.79V90.68a2.43 2.43 0 0 1 .85-2.19 7 7 0 0 1 3.37-.54H733c2.95 0 5 .43 6.29 1.31s2.06 2.52 2.47 5l.31 1.52a1.25 1.25 0 0 0 1.32 1.2c.67 0 1-.45 1-1.36 0-.32 0-.85-.1-1.58q-.32-3.25-.31-6.57 0-4.35.46-9.63c0-.54.06-.94.06-1.19 0-.94-.34-1.43-1-1.47s-1.14.4-1.32 1.31q-.68 3.6-1.5 4.57c-.55.66-1.75 1.19-3.61 1.59a44.7 44.7 0 0 1-8.57.65h-8c-1.48 0-2.37-.17-2.66-.52s-.44-1.36-.44-3v-22c0-1.93.31-3.18.93-3.74zm-59.19 0c.61-.57 2-.85 4.12-.85h8.09q8 0 11 .82a5.51 5.51 0 0 1 4 3.27 9.06 9.06 0 0 1 .62 3.32V62c0 1.13.33 1.67 1 1.63a1.16 1.16 0 0 0 1.15-.84 21.85 21.85 0 0 0 .53-3.94l.21-3.2c.17-2.39.31-3.84.41-4.34a6.16 6.16 0 0 0 .16-1.26c0-1-.57-1.57-1.71-1.57a14.26 14.26 0 0 0-2.06.22c-.45.07-1.69.14-3.72.22l-7.33.38c-3.24.14-6.95.22-11.15.22a152.21 152.21 0 0 1-17.76-.88 29.58 29.58 0 0 0-3.46-.27c-1.55 0-2.33.5-2.33 1.49q0 1 1.5 1 4.7 0 6.32 2.7T650.3 64v49.68q0 6.54-3.72 7.64l-2 .6c-.9.25-1.34.67-1.34 1.28q0 1.17 1.65 1.17a17.46 17.46 0 0 0 2.68-.38 85.5 85.5 0 0 1 12.76-.65q6.45 0 16.31 1c1.69.14 3 .22 4 .22a13.94 13.94 0 0 0 11.46-5.87q3.78-4.89 3.77-8.42c0-1-.32-1.45-.95-1.41-.39 0-.78.36-1.17 1q-5.78 9.65-26 9.65-6.39 0-8-1.15c-1-.76-1.57-2.69-1.57-5.79V92.48l-.05-1.8a2.43 2.43 0 0 1 .85-2.19 7 7 0 0 1 3.37-.54h11.39c3 0 5 .43 6.29 1.31s2.06 2.52 2.47 5l.31 1.52a1.25 1.25 0 0 0 1.32 1.2c.67 0 1-.45 1-1.36 0-.32 0-.85-.1-1.58q-.31-3.25-.31-6.57 0-4.35.46-9.63v-1.19c0-.94-.33-1.43-1-1.47s-1.14.4-1.32 1.31c-.45 2.4-.94 3.92-1.49 4.57s-1.76 1.19-3.62 1.59a44.7 44.7 0 0 1-8.57.65h-8c-1.48 0-2.37-.17-2.66-.52s-.44-1.36-.44-3v-22c0-1.93.31-3.18.93-3.74zm-62.76-.69a18.38 18.38 0 0 0-6.23 14.38q0 7.89 4.77 12.85t16.22 9q11.08 3.93 13.41 6.06a13.3 13.3 0 0 1 4.53 10.2 13.92 13.92 0 0 1-4.91 10.75 17.34 17.34 0 0 1-12 4.42 20.85 20.85 0 0 1-13-4.59 21.19 21.19 0 0 1-7.83-11.38c-.49-1.74-1.05-2.64-1.68-2.67s-1.06.49-1.06 1.58a30.84 30.84 0 0 0 1.35 7c.79 3 1.22 4.67 1.29 5a26.55 26.55 0 0 0 .93 3.78 3.38 3.38 0 0 0 1.24 1.31 21.16 21.16 0 0 0 7 2.78 36.19 36.19 0 0 0 8.76 1.2q11 0 18-6.48a21.67 21.67 0 0 0 7-16.67q0-15-19.07-21.62a124.88 124.88 0 0 1-12.3-4.75 13.69 13.69 0 0 1-4.61-4.15 13 13 0 0 1-2.43-7.91 11.28 11.28 0 0 1 3.73-8.64 13.1 13.1 0 0 1 9.29-3.47 22.16 22.16 0 0 1 12.69 3.83 18.13 18.13 0 0 1 7.54 9.76c.56 1.75 1.13 2.63 1.69 2.63.73 0 1.1-.57 1.1-1.69 0-.29-.09-1-.26-2.24l-.8-5.58q-.68-4.57-.67-5.51 0-2.72-1.29-2.67a.66.66 0 0 0-.57.22l-.73.66a1.88 1.88 0 0 1-1.23.54 2.11 2.11 0 0 1-.93-.22l-3.57-1.58a23.17 23.17 0 0 0-9.34-1.69q-9.81 0-16 5.56zm-55.61 0a18.38 18.38 0 0 0-6.22 14.38q0 7.89 4.77 12.85t16.21 9q11.1 3.93 13.41 6.06a13.28 13.28 0 0 1 4.54 10.2 13.93 13.93 0 0 1-4.92 10.75 17.31 17.31 0 0 1-12 4.42 20.86 20.86 0 0 1-13-4.59 21.12 21.12 0 0 1-7.82-11.38c-.5-1.74-1.06-2.64-1.69-2.67s-1 .49-1 1.58a31.25 31.25 0 0 0 1.34 7c.79 3 1.22 4.67 1.3 5a27.11 27.11 0 0 0 .92 3.78 3.38 3.38 0 0 0 1.24 1.39 21.14 21.14 0 0 0 7 2.78 36.12 36.12 0 0 0 8.75 1.2q11 0 18-6.48a21.67 21.67 0 0 0 7-16.67q0-15-19.08-21.62a124.88 124.88 0 0 1-12.3-4.75 13.87 13.87 0 0 1-4.61-4.15 13 13 0 0 1-2.43-7.91 11.29 11.29 0 0 1 3.74-8.64 13.07 13.07 0 0 1 9.29-3.47 22.1 22.1 0 0 1 12.68 3.83 18.15 18.15 0 0 1 7.55 9.73c.56 1.75 1.12 2.63 1.68 2.63.74 0 1.1-.57 1.1-1.69 0-.29-.08-1-.25-2.24l-.84-5.63q-.68-4.57-.67-5.51 0-2.72-1.29-2.67a.66.66 0 0 0-.57.22l-.72.66a1.92 1.92 0 0 1-1.24.54 2.11 2.11 0 0 1-.93-.22l-3.56-1.58a23.22 23.22 0 0 0-9.35-1.69q-9.81 0-16 5.56zm-53 .69c.62-.57 2-.85 4.13-.85H500q8 0 11 .82a5.48 5.48 0 0 1 4 3.27 8.87 8.87 0 0 1 .63 3.32V62c0 1.13.33 1.67 1 1.63a1.16 1.16 0 0 0 1.15-.84 22.87 22.87 0 0 0 .53-3.94l.2-3.2c.18-2.39.32-3.84.42-4.34A6.81 6.81 0 0 0 519 50c0-1-.57-1.57-1.7-1.57a14.23 14.23 0 0 0-2.07.22c-.45.07-1.68.14-3.71.22l-7.33.38c-3.24.14-7 .22-11.16.22a152.21 152.21 0 0 1-17.76-.88 29.58 29.58 0 0 0-3.46-.27c-1.55 0-2.32.5-2.32 1.49 0 .68.5 1 1.49 1q4.71 0 6.33 2.7T479 64v49.68q0 6.54-3.72 7.64l-2 .6c-.89.25-1.34.67-1.34 1.28q0 1.17 1.65 1.17a17.53 17.53 0 0 0 2.69-.38 85.44 85.44 0 0 1 12.75-.65c4.31 0 9.74.32 16.32 1 1.68.14 3 .22 4 .22a13.94 13.94 0 0 0 11.46-5.87q3.76-4.89 3.77-8.42 0-1.47-1-1.41c-.38 0-.77.36-1.16 1q-5.77 9.65-26 9.65-6.39 0-8-1.15t-1.57-5.79V92.48l-.06-1.8a2.45 2.45 0 0 1 .85-2.19A7.09 7.09 0 0 1 491 88h11.39c2.95 0 5 .43 6.28 1.31s2.06 2.52 2.48 5l.31 1.52a1.25 1.25 0 0 0 1.32 1.2c.66 0 1-.45 1-1.36 0-.32 0-.85-.11-1.58q-.3-3.25-.3-6.57 0-4.35.45-9.63c0-.54.06-.94.06-1.19 0-.94-.33-1.43-1-1.47s-1.15.4-1.32 1.31q-.68 3.6-1.5 4.57c-.55.66-1.76 1.19-3.61 1.59a44.7 44.7 0 0 1-8.57.65h-8c-1.48 0-2.36-.17-2.66-.52s-.43-1.36-.43-3v-22c0-1.93.31-3.18.92-3.74zM459.5 66.5v-5.91c0-3.49.33-5.87 1-7.15s2.05-2.17 4.15-2.72c.73-.22 1.07-.56 1-1-.08-.76-.56-1.14-1.45-1.14a13.94 13.94 0 0 0-2.53.33 32.72 32.72 0 0 1-5.11.32 92 92 0 0 1-9.55-.39c-1-.1-1.73-.15-2.17-.15-1 0-1.5.34-1.5 1s.5 1.15 1.5 1.33c3.54.62 6 1.57 7.36 2.87s2.21 3.47 2.55 6.56l.69 12.55-.05 7.36v27c0 .65-.22 1-.57 1s-.69-.4-1.44-1.31l-47.5-56.79a3.55 3.55 0 0 0-2.59-1.58c-.44 0-1.08 0-1.91.05l-.82.06-3.46-.11-2.1-.09c-.38 0-.65-.05-.83-.05-.75 0-1.13.34-1.13 1s.46 1.08 1.39 1.23c3.58.5 6.32 2.57 8.21 6.18s2.84 8.58 2.84 14.87v37.09q0 5.89-1.52 8.54c-1 1.77-3 3.17-5.86 4.23-1 .35-1.48.8-1.45 1.33s.55 1 1.45 1a15.67 15.67 0 0 0 1.91-.2 29 29 0 0 1 3.82-.25l2.48-.09 5.26.27c2.62.14 4.12.25 4.5.32a10.66 10.66 0 0 0 1.55.11.94.94 0 0 0 1.08-1.06c0-.78-.57-1.25-1.7-1.39-2.72-.44-4.55-1.11-5.47-2s-1.52-2.56-1.76-5l-.16-3.88.05-2.29v-37c0-1.64.33-2.46 1-2.46a1 1 0 0 1 .73.33l.52.6 43.52 52.54 1.13 1.42a1.78 1.78 0 0 0 1.19.49c.79 0 1.28-.39 1.45-1.28a59.8 59.8 0 0 0 .26-7.49V70.07zm-74.89 0v-5.91q0-5.23 1-7.15c.67-1.27 2.05-2.17 4.15-2.72.73-.22 1.07-.56 1-1-.07-.76-.55-1.14-1.45-1.14a13.94 13.94 0 0 0-2.53.33 32.72 32.72 0 0 1-5.11.32 92 92 0 0 1-9.55-.39c-1-.1-1.72-.15-2.17-.15-1 0-1.5.34-1.5 1S369 50.81 370 51c3.54.62 6 1.57 7.36 2.87s2.21 3.47 2.55 6.56l.64 12.57-.05 7.36v27c0 .65-.22 1-.57 1s-.69-.4-1.44-1.31L331 50.23a3.53 3.53 0 0 0-2.58-1.58c-.45 0-1.09 0-1.91.05l-.83.06-3.46-.11-2.12-.06c-.38 0-.65-.05-.83-.05-.75 0-1.13.34-1.13 1s.46 1.08 1.39 1.23c3.58.5 6.32 2.57 8.21 6.18s2.84 8.58 2.84 14.87v37.09c0 3.93-.5 6.78-1.52 8.54s-3 3.17-5.86 4.23c-1 .35-1.48.8-1.45 1.33s.55 1 1.45 1a15.67 15.67 0 0 0 1.91-.2 29 29 0 0 1 3.82-.25l2.48-.09 5.26.27c2.62.14 4.12.25 4.5.32a10.66 10.66 0 0 0 1.55.11.94.94 0 0 0 1.08-1.06c0-.78-.57-1.25-1.7-1.39q-4.08-.66-5.48-2t-1.75-5l-.16-3.88.05-2.29v-37q0-2.46 1-2.46a1 1 0 0 1 .72.33l.51.6 43.53 52.54 1.14 1.42a1.74 1.74 0 0 0 1.19.49c.79 0 1.27-.39 1.44-1.28a59.8 59.8 0 0 0 .26-7.49V70.07zM279.88 54c.62-.57 2-.85 4.13-.85h8.09q8 0 11 .82a5.48 5.48 0 0 1 4 3.27 8.86 8.86 0 0 1 .62 3.32V62c0 1.13.34 1.67 1 1.63a1.17 1.17 0 0 0 1.16-.84 22.87 22.87 0 0 0 .53-3.94l.2-3.2c.18-2.39.31-3.84.42-4.34a6.81 6.81 0 0 0 .15-1.26c0-1-.57-1.57-1.7-1.57a14.23 14.23 0 0 0-2.07.22c-.44.07-1.68.14-3.71.22l-7.33.38c-3.24.14-7 .22-11.16.22a152.21 152.21 0 0 1-17.76-.88 29.42 29.42 0 0 0-3.46-.27c-1.55 0-2.32.5-2.32 1.49q0 1 1.5 1 4.69 0 6.32 2.7T271.06 64v46.13l-.06 3.55c0 4.36-1.23 6.91-3.71 7.64l-2 .6c-.9.25-1.35.67-1.35 1.28 0 .78.55 1.17 1.66 1.17a17.62 17.62 0 0 0 2.68-.38 85.44 85.44 0 0 1 12.75-.65q6.45 0 16.32 1c1.68.14 3 .22 4 .22a13.94 13.94 0 0 0 11.46-5.87q3.76-4.89 3.77-8.42 0-1.47-1-1.41c-.38 0-.77.36-1.16 1q-5.77 9.65-26 9.65-6.39 0-8-1.15t-1.42-5.79V92.48l-.06-1.8a2.43 2.43 0 0 1 .86-2.19 7 7 0 0 1 3.37-.54h11.39c3 0 5.05.43 6.28 1.31s2.06 2.52 2.48 5l.3 1.52a1.25 1.25 0 0 0 1.33 1.2c.66 0 1-.45 1-1.36 0-.32 0-.85-.11-1.58-.2-2.17-.31-4.36-.31-6.57 0-2.9.16-6.11.46-9.63 0-.54.06-.94.06-1.19 0-.94-.33-1.43-1-1.47s-1.15.4-1.32 1.31Q303 80 302.19 81c-.55.66-1.75 1.19-3.61 1.59a44.75 44.75 0 0 1-8.58.65h-7.95c-1.48 0-2.36-.17-2.65-.52s-.44-1.36-.44-3v-22c0-1.93.31-3.18.92-3.74zm-28 2.06q1.5 1.19 2.17 5c.2 1.16.62 1.72 1.24 1.69s1.11-.66 1.08-1.74c0-.54-.14-1.43-.31-2.66a30.21 30.21 0 0 1-.26-4.67c0-2.14-.2-3.42-.59-3.86s-1.54-.65-3.44-.65h-55.6a2.67 2.67 0 0 0-2.3.79 6.58 6.58 0 0 0-.54 3.29 34.22 34.22 0 0 1-.78 6.46 25.64 25.64 0 0 0-.62 4.19c0 .94.31 1.43.93 1.46s1.09-.65 1.4-2.07q1-4.91 2.92-6.68t6.06-1.77h13.68a3.78 3.78 0 0 1 2.51.55 3.85 3.85 0 0 1 .54 2.51l.05 1.42v54.1q0 4.59-1.39 6.36t-5.37 2.32c-1.14.15-1.71.5-1.71 1.07q0 1.17 1.56 1.17c.34 0 1.5-.11 3.46-.33a34.68 34.68 0 0 1 3.68-.16l4-.06 3.78.06a38.52 38.52 0 0 1 4.65.16 19.23 19.23 0 0 0 2.54.33c1 0 1.45-.39 1.45-1.18 0-.6-.6-1-1.81-1.22q-6.5-1.2-6.76-7.59V58.74c0-1.71.19-2.79.59-3.22s1.35-.66 2.87-.66h14.5c2.9 0 4.84.39 5.84 1.17z" mask="url(#a)"/><path fill="#58595b" d="M736.28 4.92a2.45 2.45 0 0 1 .52-1.79 2.57 2.57 0 0 1 1.83-.51h3.94c3.43 0 5.45 1 6.08 3.11a2.53 2.53 0 0 1 .12.82v.8q0 .66.48.66c.58 0 .87-.65.87-1.94a8.75 8.75 0 0 0-.06-.93l-.24-1.8c0-.16-.06-.73-.13-1.73q-.07-1.23-.63-1.23c-.38 0-1 0-1.77.1q-3.24.27-6.35.27h-6l-4 .07c-1 0-2 0-2.93-.12L726.8.66c-.53 0-.79.24-.79.7s.2.55.6.58A5.23 5.23 0 0 1 730 3.1c.68.59 1 1.88 1 3.86v19.42a11.52 11.52 0 0 1-.49 4 2.87 2.87 0 0 1-1.88 1.62c-.42.15-.64.37-.64.68s.26.62.76.62a21.49 21.49 0 0 0 2.26-.23 22.91 22.91 0 0 1 3-.17h2.55c1.68 0 2.79 0 3.34.1a10.22 10.22 0 0 0 1.34.11c.33 0 .5-.21.5-.65s-.24-.6-.73-.65c-1.75-.14-2.92-.6-3.5-1.39q-1.2-1.61-1.2-5.14V20.6c0-2 .17-3.1.52-3.4s1.69-.45 4-.45a6.24 6.24 0 0 1 3.77.86 5.29 5.29 0 0 1 1.54 3.33c.08.44.27.65.56.63s.62-.21.62-.54v-1l-.34-4.46c-.09-1.23-.14-2.29-.14-3.21v-1.34c0-.41-.23-.61-.69-.61q-.3 0-.51.54a7.66 7.66 0 0 1-1.72 3 3.84 3.84 0 0 1-2.58.76h-3.39a1.56 1.56 0 0 1-1.3-.45 3.25 3.25 0 0 1-.33-1.77zM709 4.85a14.56 14.56 0 0 1 3.5 5.61 20.73 20.73 0 0 1 1.31 7.24c0 4.28-1 7.71-2.83 10.26a8.91 8.91 0 0 1-7.55 3.84 10 10 0 0 1-8.5-4.64q-3.27-4.64-3.27-12.06 0-6.28 2.61-9.81a8.48 8.48 0 0 1 7.22-3.52A10.44 10.44 0 0 1 709 4.85zm-13.14-3.42a15.16 15.16 0 0 0-5.67 4 15.73 15.73 0 0 0-3.06 5.33 18.86 18.86 0 0 0-1.13 6.4q0 7.5 4.46 12t11.93 4.48q7.8 0 12.25-5.16a19 19 0 0 0 4.55-12.86 15 15 0 0 0-4.42-11.27Q710.36 0 703.17 0a18.94 18.94 0 0 0-7.31 1.43zm-46.25 17.25a3.91 3.91 0 0 1 .58-1.18q2.44-3.94 5.37-9.73a21.37 21.37 0 0 1 2.7-4.39 5.51 5.51 0 0 1 2.8-1.58c.55-.13.83-.36.83-.7s-.21-.55-.62-.55h-1.83l-1.93.12c-.62.05-1.18.07-1.69.07a17.81 17.81 0 0 1-2.3-.12L652 .45a8.36 8.36 0 0 0-1.17-.07q-.6 0-.6.75c0 .32.24.51.73.57a4.88 4.88 0 0 1 2.58 1 2.42 2.42 0 0 1 1.13 1.86q0 1.19-2.52 5.85c-.83 1.51-1.34 2.47-1.54 2.88q-1.19 2.4-1.92 2.4c-.49 0-1-.55-1.52-1.65-.17-.38-.62-1.29-1.36-2.73L644 7.74a13.85 13.85 0 0 1-1.68-4.34c0-.82.59-1.34 1.77-1.58.53-.11.79-.34.79-.67s-.32-.6-1-.6c-.32 0-1 0-1.91.14a34.93 34.93 0 0 1-3.79.21 39.55 39.55 0 0 1-4.5-.28 16.32 16.32 0 0 0-1.79-.15c-.43 0-.65.25-.65.75s.29.62.86.67q2.8.29 4.9 4.34l3.5 6.75q1.44 2.83 2.64 4.86a6.35 6.35 0 0 1 1 3.28v4.5a8 8 0 0 1-.91 4.44 5.16 5.16 0 0 1-3.49 1.7c-.43.06-.64.24-.64.53 0 .53.17.79.52.79a9.06 9.06 0 0 0 1.38-.17 40.09 40.09 0 0 1 5.73-.26c1.19 0 2.09 0 2.69.1l3.26.3a10.5 10.5 0 0 0 1.2.08c.69 0 1-.24 1-.7s-.25-.64-.74-.67c-2.8-.16-4.34-1.13-4.6-2.91l-.12-1.6v-7a8 8 0 0 1 .11-1.6zm-36.27-15.1c.57-.37 2-.55 4.36-.55a6.81 6.81 0 0 1 4 1 5 5 0 0 1 1.85 3.18c.14.6.39.9.74.9s.62-.26.62-.78a16.13 16.13 0 0 0-.16-2c-.14-1-.22-1.64-.23-1.91l-.12-1.7c0-.73-.49-1.09-1.33-1.09l-1.57.01c-4 .2-7.86.31-11.47.31l-5.59-.07-4.7-.05c-1.1 0-2 0-2.55-.07-.37 0-.63-.05-.79-.05a.89.89 0 0 0-1 .92l-.16 1.44-.24 2.11-.23 2.05a14.84 14.84 0 0 0-.23 1.84c0 .49.21.74.72.74.35 0 .61-.33.78-1l.18-.66a15.59 15.59 0 0 1 1.1-3.24 3.39 3.39 0 0 1 1.62-1.17 19 19 0 0 1 6.28-.69c1.31 0 2 .63 2 1.87v22.11a5.11 5.11 0 0 1-1 3.32 3.68 3.68 0 0 1-2.77 1.34 2 2 0 0 0-.9.2c-.14.1-.21.33-.23.68s.22.63.69.63a10 10 0 0 0 1.11-.1l5.09-.3c.7 0 1.5-.07 2.39-.07h.92l2.88.19 1.72.07h.58c.47 0 .71-.18.71-.55s-.27-.79-.83-.84a4.86 4.86 0 0 1-4-1.86q-1.12-1.66-1.13-5.65V6.33c0-1.46.29-2.38.87-2.75zM583.26 5.5a5.19 5.19 0 0 1 .47-2.69 3.3 3.3 0 0 1 2.13-.94 1 1 0 0 0 .58-.22 1.08 1.08 0 0 0 .11-.58c0-.38-.25-.57-.76-.57q-1.26 0-3.63.18l-1.69.13c-1.27.11-2.33.16-3.19.16a13.83 13.83 0 0 1-2.79-.19 10.62 10.62 0 0 0-1.24-.19c-.37 0-.55.2-.55.65a.63.63 0 0 0 .33.61 5.66 5.66 0 0 0 1.51.37 4.21 4.21 0 0 1 2.69 1.23 5 5 0 0 1 .77 3.09v20.9a5.93 5.93 0 0 1-.54 2.94 4.1 4.1 0 0 1-2.2 1.49l-.66.56v.19a.63.63 0 0 0 .65.51 10.19 10.19 0 0 0 1.66-.23 21.35 21.35 0 0 1 3.63-.25 44.66 44.66 0 0 1 4.86.35 17.4 17.4 0 0 0 1.84.13c1 0 1.49-.24 1.49-.7s-.37-.72-1.12-.72a4 4 0 0 1-2.8-1 4.5 4.5 0 0 1-1.36-2.71l-.19-2.36zM548 2.67a9.15 9.15 0 0 0-2.47 6.53 7.88 7.88 0 0 0 1.77 5.38c1.18 1.34 3.43 2.78 6.73 4.29l3.51 1.6a8.85 8.85 0 0 1 3.3 2.26 4.77 4.77 0 0 1 1 3.07A5.75 5.75 0 0 1 560 30a5.73 5.73 0 0 1-4.16 1.82 8.27 8.27 0 0 1-5.84-2.77 15.12 15.12 0 0 1-3.92-6.82c-.09-.37-.24-.56-.46-.56-.47 0-.71.38-.71 1.13a21.73 21.73 0 0 0 .87 4.11 20.42 20.42 0 0 1 .69 3.22 3 3 0 0 0 .29 1.21 2.88 2.88 0 0 0 1.23.42 22.32 22.32 0 0 1 2.37.71 19 19 0 0 0 5 1.11 9.12 9.12 0 0 0 6.8-3 10.08 10.08 0 0 0 2.89-7.17A10 10 0 0 0 563 17c-1.18-1.46-3.6-3-7.24-4.49-3.06-1.28-4.88-2.19-5.46-2.76a4.2 4.2 0 0 1-1.36-3.13 4.47 4.47 0 0 1 1.54-3.39 5.14 5.14 0 0 1 3.62-1.44 8.48 8.48 0 0 1 5.72 2.41 10.16 10.16 0 0 1 3.36 5.7q.2.9.6.9c.39 0 .58-.34.58-1a3.14 3.14 0 0 0-.05-.47l-.23-2.15-.3-2.32a7.69 7.69 0 0 1 0-.85V2.1q0-.78-.48-.78a.84.84 0 0 0-.37.09l-.87.45a1.62 1.62 0 0 1-.67.17 4.74 4.74 0 0 1-1.48-.43l-1.54-.7a11 11 0 0 0-4.23-.85A8.11 8.11 0 0 0 548 2.67zm-31.53.15a2.8 2.8 0 0 1 2.15-.67 7.73 7.73 0 0 1 5.78 2.33 8.11 8.11 0 0 1 2.27 5.89 5.57 5.57 0 0 1-1.68 4.3 3.41 3.41 0 0 1-1.83 1 48.63 48.63 0 0 1-5.09.15 2.67 2.67 0 0 1-1.81-.4 3 3 0 0 1-.38-1.91V5.29a3.81 3.81 0 0 1 .59-2.47zM515.86 19c0-.63.11-1 .34-1.13l1-.19h1.42a4 4 0 0 1 2.63.7 11.06 11.06 0 0 1 2 3.31 48 48 0 0 0 5.2 9 5.69 5.69 0 0 0 4.36 2.39 8 8 0 0 0 3.34-.88q1.89-.87 1.89-1.56 0-.54-.42-.54a2.58 2.58 0 0 0-.51.07 5 5 0 0 1-1 .1 3.32 3.32 0 0 1-2.11-.87 12.11 12.11 0 0 1-2.17-3l-2.42-4.4-2-3.73q-.42-.78-.63-1.11a1.37 1.37 0 0 1-.22-.57c0-.19.13-.34.43-.47a8 8 0 0 0 3.51-2.91A7.48 7.48 0 0 0 531.74 9a7.74 7.74 0 0 0-2.88-6.16 10.8 10.8 0 0 0-7.25-2.46c-1 0-2.77.1-5.36.31-2.21.17-4.09.26-5.64.26a38.53 38.53 0 0 1-3.89-.19 6.93 6.93 0 0 0-.83-.07c-.43 0-.64.22-.64.67s.31.72.94.81a5.07 5.07 0 0 1 3.68 1.91 7.15 7.15 0 0 1 .69 3.8V28.1a4.42 4.42 0 0 1-.6 2.56 4.08 4.08 0 0 1-2.18 1.34.63.63 0 0 0-.46.68c0 .43.27.65.83.65.16 0 .47 0 .89-.07l1.55-.13 1.93-.19c.8-.06 1.71-.09 2.74-.09 1.23 0 2.5.06 3.82.17.46.05.77.07.94.07.52 0 .79-.22.79-.67s-.32-.71-1-.77a3.67 3.67 0 0 1-3.18-1.83c-.54-1.06-.8-3.09-.8-6.07zM482.62 5.11c0-1.34.4-2.14 1.18-2.39l1.56-.19h2.81a10.51 10.51 0 0 1 5.4 1.05A3.75 3.75 0 0 1 495.24 7c0 .71.14 1.06.43 1 .6 0 .9-.64.9-1.84 0-.6-.06-1.58-.18-2.95-.09-.93-.14-1.58-.14-1.94 0-.52-.22-.78-.67-.78h-.32q-1.75.21-9.27.21l-8.73-.1-2.33-.03h-1.12a6.77 6.77 0 0 0-.69-.05c-.51 0-.76.18-.76.55a.65.65 0 0 0 .62.7 5.87 5.87 0 0 1 3.49 1.32c.56.63.84 1.83.84 3.59v18.7a17.68 17.68 0 0 1-.26 3.4 4.87 4.87 0 0 1-.74 2.07 4.44 4.44 0 0 1-1.79 1.09c-.35.15-.52.36-.51.65a.52.52 0 0 0 .6.53c.28 0 .73 0 1.36-.07 2.29-.14 4-.21 5.11-.21 1.67 0 3 0 4 .14l2.67.26a30.5 30.5 0 0 0 3.27.19 8.73 8.73 0 0 0 4-.79 6.2 6.2 0 0 0 2.54-2.64 9 9 0 0 0 1.22-4.5.72.72 0 0 0-.19-.51.47.47 0 0 0-.43-.15c-.08 0-.17.12-.27.31Q495 31 485.66 31a2.85 2.85 0 0 1-1.63-.37 3.11 3.11 0 0 1-.92-1.44 16 16 0 0 1-.51-4.79v-2.17a36.22 36.22 0 0 1 .14-3.73 2.18 2.18 0 0 1 .54-1.38 2.41 2.41 0 0 1 1.51-.34h1.56a20.91 20.91 0 0 1 3.24.16 2.87 2.87 0 0 1 1.46.74 5.14 5.14 0 0 1 1.38 3c.09.63.33.93.71.9a.45.45 0 0 0 .37-.16.94.94 0 0 0 .07-.45v-1.21c0-.9-.05-2-.14-3.18-.14-1.86-.21-3-.21-3.55 0-.28 0-.63.05-1 0-.57.07-.91.07-1 0-.44-.17-.66-.51-.64a.76.76 0 0 0-.69.45L491.6 12q-1.25 2.56-3.52 2.57h-3.69c-.8 0-1.3-.2-1.51-.59a7.49 7.49 0 0 1-.31-2.79V6.07zm-39.57-1.23a1.87 1.87 0 0 1 1.7-2c.65-.12 1-.37 1-.74a.58.58 0 0 0-.65-.65c-.3 0-1 0-2 .1l-2.41.11-3.89-.15a21.75 21.75 0 0 1-2.73-.15h-.69a.56.56 0 0 0-.64.64c0 .4.3.67.92.8a4 4 0 0 1 2.54 1.74 31.86 31.86 0 0 1 2.52 5.74c.89 2.47 2 5.27 3.34 8.38l5.45 12.71.58 1.43.53 1.21c.17.38.4.57.7.57s.8-.36 1.09-1.07c.11-.26.58-1.27 1.4-3q.17-.3 2.08-4.67l3.94-8.9 3.43-8.15a28.94 28.94 0 0 1 2.4-4.83 3.44 3.44 0 0 1 2.18-1.4c.46-.1.69-.33.69-.7s-.14-.6-.42-.6a6.75 6.75 0 0 0-.92.09 20.05 20.05 0 0 1-3.63.29c-.46 0-1.23 0-2.32-.1l-2.41-.13h-1.28A.5.5 0 0 0 455 1c0 .37.27.58.81.65a5.28 5.28 0 0 1 2.86 1.21 3.12 3.12 0 0 1 1 2.4c0 1.71-.85 4.51-2.56 8.38l-5.2 11.8c-.2.46-.38.68-.55.66s-.39-.3-.63-.87l-5.13-12.91q-2.52-6.28-2.52-8.4zM421.36 5.5a5.08 5.08 0 0 1 .47-2.69 3.28 3.28 0 0 1 2.17-.94c.31-.05.5-.12.57-.22a1 1 0 0 0 .12-.58c0-.38-.25-.57-.76-.57-.84 0-2.06.06-3.64.18l-1.68.13c-1.27.11-2.34.16-3.2.16a13.78 13.78 0 0 1-2.78-.19 10.94 10.94 0 0 0-1.24-.19c-.38 0-.56.2-.56.65a.63.63 0 0 0 .34.61 5.55 5.55 0 0 0 1.5.37 4.22 4.22 0 0 1 2.7 1.23 5 5 0 0 1 .73 3.09v20.9a5.93 5.93 0 0 1-.54 2.94 4.1 4.1 0 0 1-2.2 1.49l-.67.56.05.19a.62.62 0 0 0 .65.51 10.11 10.11 0 0 0 1.61-.23 21.4 21.4 0 0 1 3.64-.25 44.34 44.34 0 0 1 4.85.35 17.56 17.56 0 0 0 1.85.13c1 0 1.49-.24 1.49-.7s-.37-.72-1.12-.72a4 4 0 0 1-2.8-1 4.56 4.56 0 0 1-1.37-2.71l-.18-2.36zm-40.87-.87l-1.59-1.91a16.76 16.76 0 0 0-1.74-1.95A1.78 1.78 0 0 0 376 .45c-.34 0-.76 0-1.27.07a37.94 37.94 0 0 1-3.85.21h-1l-1.6-.07c-.52 0-.78.22-.78.67s.24.57.71.6q5.24.38 5.23 7.64v10.26l-.16 5.61a10.26 10.26 0 0 1-.77 4.44 3.87 3.87 0 0 1-2.46 2c-.44.13-.66.36-.66.68s.2.57.62.57a7.86 7.86 0 0 0 1.18-.13 23.28 23.28 0 0 1 4.15-.34 25.7 25.7 0 0 1 4.29.33 5.83 5.83 0 0 0 .9.1.63.63 0 0 0 .71-.72c0-.36-.23-.56-.69-.61-2.49-.23-4-1.23-4.49-3s-.71-4.93-.71-9.82v-9.8c0-.7.18-1.06.55-1.06.14 0 .4.21.76.62l20.94 23.88a1.29 1.29 0 0 0 .85.52c.31 0 .47-.19.47-.63l-.09-3v-4.41l.09-2 .32-14.76V7.16c0-3.23 1-5 3-5.41.49-.08.73-.32.73-.72s-.24-.67-.74-.67h-.67a43.85 43.85 0 0 1-5.05.45 16.24 16.24 0 0 1-2-.14 23.43 23.43 0 0 0-2.67-.24c-.45 0-.67.21-.67.63s.25.52.76.56q3.19.23 4.29 2.19c.73 1.3 1.09 3.81 1.09 7.5 0 3.15-.07 6.47-.2 9.94 0 1-.21 1.44-.53 1.44s-1.05-.6-2.09-1.79l-.78-.9-12.1-14-1.12-1.37zM349.42 1c0 .46.3.7.89.7a4.35 4.35 0 0 1 3.25 1.21 5.13 5.13 0 0 1 1.33 3.42l.12 4.84V13a50 50 0 0 1-.77 10.05 10.37 10.37 0 0 1-2.61 5.31 9.8 9.8 0 0 1-7.19 2.7 10 10 0 0 1-7.13-2.63 8.2 8.2 0 0 1-2.43-4.14 39.27 39.27 0 0 1-.58-8.14l-.05-4.15.37-5.95a7 7 0 0 1 .6-3.08 2.69 2.69 0 0 1 1.88-1.08 2.4 2.4 0 0 0 .9-.29.64.64 0 0 0 .18-.53c0-.46-.4-.69-1.19-.69q-.5 0-1.59.09c-1.82.18-3.48.26-5 .26-1.05 0-2.55-.09-4.5-.28-.46 0-.77-.07-.94-.07-.52 0-.78.21-.78.62s.29.63.89.73a9 9 0 0 1 2.54.75 2.56 2.56 0 0 1 1.27 1.13 5.83 5.83 0 0 1 .31 2.27l.07 4.3-.26 9.14q0 8.9 4.4 12 3.24 2.27 9.11 2.27 8.31 0 11.79-5.5a17.22 17.22 0 0 0 2.1-6.45 73.4 73.4 0 0 0 .66-11l.05-2.91v-2c0-2.43.6-3.74 1.8-3.94l.87-.17c.39-.06.58-.26.58-.58a.55.55 0 0 0-.62-.62 7.1 7.1 0 0 0-.77 0c-.58.08-1.26.15-2 .22l-2.26.09-2.5-.14a16.27 16.27 0 0 1-1.82-.14 1.53 1.53 0 0 0-.53-.07c-.3 0-.44.21-.44.58zM284.1 5.11c0-1.34.39-2.14 1.18-2.39l1.56-.19h2.81a10.53 10.53 0 0 1 5.4 1.05A3.75 3.75 0 0 1 296.72 7c0 .71.14 1.06.43 1 .6 0 .9-.64.9-1.84 0-.6-.06-1.58-.18-2.95-.09-.93-.14-1.58-.14-1.94 0-.52-.22-.78-.67-.78h-.32q-1.75.21-9.28.21l-8.72-.1-2.33-.03h-1.12c-.36 0-.59-.05-.69-.05-.51 0-.76.18-.76.55a.64.64 0 0 0 .62.7 5.9 5.9 0 0 1 3.54 1.3c.56.63.83 1.83.83 3.59v18.7a17.81 17.81 0 0 1-.25 3.4 4.73 4.73 0 0 1-.75 2.07 4.39 4.39 0 0 1-1.83 1.09c-.35.15-.52.36-.51.65a.52.52 0 0 0 .6.53c.28 0 .73 0 1.36-.07 2.29-.14 4-.21 5.11-.21 1.67 0 3 0 4 .14l2.67.26a30.5 30.5 0 0 0 3.27.19 8.73 8.73 0 0 0 4-.79A6.2 6.2 0 0 0 299 30a9.12 9.12 0 0 0 1.22-4.5.72.72 0 0 0-.19-.51.47.47 0 0 0-.43-.15c-.08 0-.17.12-.28.31Q296.5 31 287.14 31a2.83 2.83 0 0 1-1.63-.37 3 3 0 0 1-.92-1.44 16 16 0 0 1-.51-4.79v-2.17a36.22 36.22 0 0 1 .14-3.73 2.18 2.18 0 0 1 .54-1.38 2.41 2.41 0 0 1 1.51-.34h1.56a20.91 20.91 0 0 1 3.24.16 2.87 2.87 0 0 1 1.46.74 5.14 5.14 0 0 1 1.38 3c.09.63.33.93.71.9a.45.45 0 0 0 .37-.16.94.94 0 0 0 .07-.45v-1.21c0-.9-.05-2-.14-3.18-.14-1.86-.21-3-.21-3.55 0-.28 0-.63.05-1 0-.57.07-.91.07-1 0-.44-.17-.66-.51-.64a.76.76 0 0 0-.69.45l-.55 1.16q-1.24 2.56-3.52 2.57h-3.69c-.8 0-1.3-.2-1.51-.59a7.49 7.49 0 0 1-.31-2.79V6.07zM256 17.33a7.3 7.3 0 0 1 .3 2.8v6.46a7.6 7.6 0 0 1-.68 3.66 3 3 0 0 1-2.24 1.46c-.39.05-.58.24-.58.58 0 .53.25.79.74.79.25 0 .84-.06 1.77-.17a37.77 37.77 0 0 1 3.82-.26 42.26 42.26 0 0 1 5 .34c.8.09 1.33.14 1.61.14q1.2 0 1.2-.75c0-.42-.29-.62-.85-.62a3.88 3.88 0 0 1-3.42-1.48 8.5 8.5 0 0 1-1-4.82V5.19c0-2 .91-3.2 2.72-3.51.44-.08.66-.3.66-.65s-.27-.65-.83-.65-1.4.06-2.5.17c-1.84.2-3.06.3-3.64.3a28.42 28.42 0 0 1-4.4-.3 12.49 12.49 0 0 0-1.52-.17c-.49 0-.73.23-.73.7s.21.61.64.69l1.06.22c2.16.41 3.25 1.62 3.25 3.63v5.08a9.2 9.2 0 0 1-.32 3.21c-.2.38-.77.58-1.71.58h-10.82q-1.89 0-2.22-.42a6.35 6.35 0 0 1-.34-2.82V5.19c0-2 .91-3.2 2.72-3.51.45-.08.67-.3.67-.65s-.28-.65-.83-.65-1.4.06-2.51.17c-1.86.2-3.07.3-3.64.3a27.83 27.83 0 0 1-4.38-.3 12.7 12.7 0 0 0-1.52-.17c-.49 0-.73.23-.73.7s.21.6.64.69a7.46 7.46 0 0 1 3.37 1.31 3.24 3.24 0 0 1 .91 2.54v20.97a7.75 7.75 0 0 1-.68 3.66 3 3 0 0 1-2.24 1.46c-.39.05-.58.24-.58.58 0 .53.24.79.74.79.24 0 .83-.06 1.77-.17a37.62 37.62 0 0 1 3.8-.26 41.69 41.69 0 0 1 5 .34c.81.09 1.36.14 1.64.14.79 0 1.19-.25 1.19-.75s-.26-.62-.78-.62a4 4 0 0 1-3.53-1.48 8.49 8.49 0 0 1-1-4.82v-5.88a4.1 4.1 0 0 1 .39-2.3c.25-.29.92-.43 2-.43h10.91c.95 0 1.53.16 1.73.48zM211.91 3.58c.58-.37 2-.55 4.36-.55a6.78 6.78 0 0 1 4 1 5 5 0 0 1 1.86 3.18c.13.6.38.9.73.9s.62-.26.62-.78a16.13 16.13 0 0 0-.16-2c-.13-1-.21-1.64-.23-1.91L223 1.68c0-.73-.49-1.09-1.34-1.09l-1.54.05c-4 .2-7.86.31-11.46.31L203 .88l-4.68-.05c-1.11 0-2 0-2.56-.07L195 .71a.9.9 0 0 0-1 .92l-.16 1.44-.27 2.11-.23 2.05a13.12 13.12 0 0 0-.23 1.84c0 .49.2.74.71.74.35 0 .61-.33.78-1l.19-.66a15.8 15.8 0 0 1 1.09-3.24 3.49 3.49 0 0 1 1.62-1.17 19.06 19.06 0 0 1 6.29-.69c1.3 0 1.95.63 1.95 1.87v22.11a5.17 5.17 0 0 1-1 3.32 3.7 3.7 0 0 1-2.74 1.34 1.91 1.91 0 0 0-.89.2.85.85 0 0 0-.23.68q0 .63.69.63a9.88 9.88 0 0 0 1.1-.1l5.09-.3c.71 0 1.5-.07 2.39-.07h.92l2.88.19 1.73.07h.57c.48 0 .72-.18.72-.55s-.28-.79-.83-.84c-1.91-.13-3.23-.74-4-1.86s-1.13-3-1.13-5.65V6.33c0-1.46.29-2.38.86-2.75zm276.22 144.23c0-1.34.39-2.13 1.18-2.39l1.57-.19h2.81a10.53 10.53 0 0 1 5.41 1.06 3.72 3.72 0 0 1 1.68 3.41c0 .71.14 1.05.43 1 .6 0 .9-.65.9-1.84 0-.6-.06-1.59-.18-3-.09-.93-.14-1.57-.14-1.94s-.22-.77-.67-.77a1.89 1.89 0 0 0-.32 0q-1.76.21-9.3.21l-8.74-.09-2.34-.1h-1.13l-.69-.05c-.51 0-.76.19-.76.56a.64.64 0 0 0 .62.69c1.77.26 2.94.7 3.5 1.33s.84 1.82.84 3.58v18.71a18.83 18.83 0 0 1-.25 3.4 4.88 4.88 0 0 1-.75 2.06 4.52 4.52 0 0 1-1.79 1.1.66.66 0 0 0-.51.65.53.53 0 0 0 .6.53c.28 0 .73 0 1.36-.07 2.3-.14 4-.21 5.12-.21 1.68 0 3 .05 4 .14l2.67.26a30.68 30.68 0 0 0 3.28.19 8.76 8.76 0 0 0 4-.8 6.17 6.17 0 0 0 2.53-2.64 9 9 0 0 0 1.23-4.5.76.76 0 0 0-.19-.51.47.47 0 0 0-.43-.15c-.08 0-.17.11-.28.3q-2.88 5.84-12.25 5.84a2.85 2.85 0 0 1-1.64-.38 3.08 3.08 0 0 1-.93-1.44 16.34 16.34 0 0 1-.5-4.78v-2.13a36.93 36.93 0 0 1 .13-3.73 2.23 2.23 0 0 1 .55-1.38 2.48 2.48 0 0 1 1.51-.34h1.57a20.52 20.52 0 0 1 3.24.17 2.78 2.78 0 0 1 1.46.73 5.09 5.09 0 0 1 1.39 3.05q.14.94.72.9a.44.44 0 0 0 .36-.17.94.94 0 0 0 .07-.45v-1.21c0-.9 0-1.95-.14-3.17-.13-1.86-.21-3.05-.21-3.55 0-.29 0-.63.05-1 0-.57.07-.92.07-1.05q0-.66-.51-.63a.75.75 0 0 0-.69.44l-.53 1.16q-1.25 2.58-3.53 2.58h-3.69c-.8 0-1.3-.2-1.51-.6a7.42 7.42 0 0 1-.31-2.78v-5.13zm-31.75 0c0-2.07.78-3.17 2.33-3.28.66 0 1-.24 1-.62s-.46-.68-1.38-.68a34.21 34.21 0 0 0-3.68.19 33.66 33.66 0 0 1-3.53.28 21.1 21.1 0 0 1-2.11-.14l-1-.07c-.39 0-.68-.08-.9-.09a4.2 4.2 0 0 0-.67-.07q-.69 0-.69.72 0 .57.87.72l1.38.23c2 .33 3.06 1.76 3.06 4.27V169a10.07 10.07 0 0 1-.56 4 3.07 3.07 0 0 1-2 1.64q-.6.16-.6.6c0 .42.22.63.67.63.21 0 .64 0 1.27-.11a48 48 0 0 1 5.77-.37c1.07 0 2 0 2.88.07l2.51.12 2.77.17q1.59.12 2.19.12a5.63 5.63 0 0 0 4.6-2.08 8.34 8.34 0 0 0 1.91-5.36c0-.65-.14-1-.42-1s-.59.47-1.26 1.43q-3.27 4.71-11.09 4.71a5.33 5.33 0 0 1-2.25-.31c-.69-.36-1-2-1-5zm-31.75 0c0-2.07.78-3.17 2.33-3.28.66 0 1-.24 1-.62s-.47-.68-1.39-.68a34 34 0 0 0-3.67.19 33.8 33.8 0 0 1-3.54.28c-.46 0-1.17 0-2.11-.14l-1-.07c-.38 0-.68-.08-.9-.09a4.2 4.2 0 0 0-.67-.07q-.69 0-.69.72 0 .57.87.72l1.39.23c2 .33 3.07 1.76 3.07 4.27V169a10 10 0 0 1-.57 4 3.07 3.07 0 0 1-2 1.64q-.6.16-.6.6c0 .42.22.63.67.63.21 0 .64 0 1.27-.11a48 48 0 0 1 5.77-.37c1.07 0 2 0 2.88.07l2.51.12 2.78.17q1.59.12 2.19.12a5.6 5.6 0 0 0 4.59-2.08 8.34 8.34 0 0 0 1.91-5.36c0-.65-.14-1-.42-1s-.59.47-1.26 1.43q-3.27 4.71-11.09 4.71a5.33 5.33 0 0 1-2.25-.31c-.69-.36-1-2-1-5zm-22.55.43a5.06 5.06 0 0 1 .47-2.69 3.28 3.28 0 0 1 2.13-1 1 1 0 0 0 .58-.21 1 1 0 0 0 .12-.58c0-.38-.26-.58-.77-.58-.84 0-2.06.06-3.64.18l-1.69.14c-1.27.1-2.34.15-3.2.15a14.85 14.85 0 0 1-2.79-.18 7.76 7.76 0 0 0-1.25-.19c-.37 0-.55.2-.55.64a.65.65 0 0 0 .33.62 6.61 6.61 0 0 0 1.51.37 4.12 4.12 0 0 1 2.7 1.23 5 5 0 0 1 .74 3.08v20.91a5.76 5.76 0 0 1-.55 2.93 4.11 4.11 0 0 1-2.2 1.5l-.67.56.05.19a.6.6 0 0 0 .64.5 9.63 9.63 0 0 0 1.66-.22 21.62 21.62 0 0 1 3.65-.25 44.65 44.65 0 0 1 4.87.35c.8.08 1.41.12 1.85.12 1 0 1.49-.23 1.49-.69s-.37-.72-1.13-.72a4.06 4.06 0 0 1-2.8-1 4.61 4.61 0 0 1-1.35-2.79l-.18-2.36zm-39.35-1.63a1.87 1.87 0 0 1 1.71-2c.64-.13 1-.38 1-.74a.57.57 0 0 0-.65-.65c-.31 0-1 0-2 .09l-2.42.12-3.87-.12a24.23 24.23 0 0 1-2.74-.14 6.27 6.27 0 0 0-.69-.05.58.58 0 0 0-.65.65c0 .4.31.67.93.79a4.05 4.05 0 0 1 2.55 1.75 31.86 31.86 0 0 1 2.52 5.74q1.33 3.7 3.35 8.38l5.47 12.7.57 1.44.53 1.21c.18.38.41.56.7.56.44 0 .81-.35 1.1-1.06.11-.27.58-1.27 1.41-3q.17-.31 2.08-4.68l3.94-8.9 3.44-8.14a29.11 29.11 0 0 1 2.41-4.76 3.42 3.42 0 0 1 2.18-1.41c.47-.09.7-.33.7-.69s-.14-.61-.42-.61a7.12 7.12 0 0 0-.92.1 20.33 20.33 0 0 1-3.64.28c-.46 0-1.23 0-2.32-.09l-2.42-.14h-1.29c-.39 0-.58.18-.58.55s.27.59.81.65a5.28 5.28 0 0 1 2.87 1.22 3.12 3.12 0 0 1 1 2.39c0 1.72-.86 4.51-2.57 8.39l-5.21 11.8c-.2.45-.39.68-.56.66s-.39-.31-.62-.87L365.26 155q-2.53-6.27-2.53-8.4zm-28.86-2.71c0 .42.23.67.79.75l1 .16c1.28.18 1.92.78 1.92 1.82a3 3 0 0 1-.48 1.61 31.69 31.69 0 0 1-2.37 3l-2.4 2.92-1.07 1.27q-.37.44-.6.45c-.26 0-.63-.33-1.11-1l-1.67-2.48-1.6-2.24a10.07 10.07 0 0 1-1.69-3.92 1.39 1.39 0 0 1 .5-1.11 2.53 2.53 0 0 1 1.37-.64c.55-.06.83-.31.83-.74s-.24-.63-.72-.63-.83 0-1.47.1l-2.14.24a28.8 28.8 0 0 1-3 .14c-1.21 0-3.08-.1-5.6-.29-.6 0-1-.07-1.29-.07-.49 0-.74.24-.74.7s.3.68.88.79a6.53 6.53 0 0 1 3.51 1.77 77.77 77.77 0 0 1 5.64 7.51c1 1.45 1.9 2.69 2.66 3.7a9 9 0 0 1 1.72 2.8c0 .33-.57 1.13-1.7 2.39q-1.12 1.23-3.78 4.48a42.54 42.54 0 0 1-4.82 5.26 8.08 8.08 0 0 1-3.57 1.89q-.63.13-.6.63a.44.44 0 0 0 .2.4l.63.13 1-.05 2.05-.07c.88-.05 1.58-.07 2.11-.07a55.51 55.51 0 0 1 5.62.28 8.13 8.13 0 0 0 .87.07c.33 0 .49-.2.49-.6s-.25-.62-.76-.65q-3.6-.28-3.6-2.22 0-1.78 5.26-7.9l1.42-1.68c.25-.28.43-.42.56-.42s.26.14.46.42l1.16 1.54q2.94 3.88 4.08 5.7a6.2 6.2 0 0 1 1.13 2.67c0 1.09-.62 1.68-1.87 1.77-.56.05-.85.3-.85.75s.26.58.78.58 1 0 1.87-.08l2.54-.16c.64-.05 1.32-.07 2-.07 1 0 2.25 0 3.64.16l2.91.24h1c.55 0 .83-.22.83-.65s-.27-.75-.81-.8a6.38 6.38 0 0 1-4.22-1.88 63.22 63.22 0 0 1-6.48-8.28q-2.4-3.54-3-4.34a6.48 6.48 0 0 1-1.34-2.18c0-.26.35-.78 1-1.55q.26-.28 3-3.66a48.31 48.31 0 0 1 6.69-7 6.47 6.47 0 0 1 3.06-1.16c.51-.07.77-.32.77-.74a.57.57 0 0 0-.65-.63c-.38 0-.86 0-1.45.08l-2.83.21c-.74 0-1.44.07-2.1.07-1.26 0-2.62-.06-4.07-.17h-.83c-.5 0-.76.21-.81.64zm-34.57 3.68a14.73 14.73 0 0 1 3.51 5.61 20.77 20.77 0 0 1 1.31 7.24q0 6.43-2.84 10.27a8.94 8.94 0 0 1-7.57 3.84 10 10 0 0 1-8.51-4.64q-3.29-4.65-3.28-12.07 0-6.27 2.61-9.8a8.49 8.49 0 0 1 7.24-3.52 10.48 10.48 0 0 1 7.53 3.07zm-13.19-3.41a15.16 15.16 0 0 0-5.69 4 15.82 15.82 0 0 0-3.07 5.33 19.07 19.07 0 0 0-1.13 6.4c0 5 1.49 9 4.48 12s7 4.48 11.95 4.48q7.83 0 12.28-5.15a19 19 0 0 0 4.57-12.86 15 15 0 0 0-4.43-11.37q-4.44-4.29-11.63-4.3a18.83 18.83 0 0 0-7.33 1.44zm-37.94 3.2l-1.59-1.92a17.32 17.32 0 0 0-1.75-1.95 1.81 1.81 0 0 0-1.13-.31c-.34 0-.76 0-1.27.07a38.13 38.13 0 0 1-3.86.21h-1l-1.59-.07c-.53 0-.79.23-.79.68s.24.57.72.6q5.23.38 5.24 7.63v10.24l-.17 5.61a10.26 10.26 0 0 1-.77 4.44 3.82 3.82 0 0 1-2.46 2c-.44.13-.67.35-.67.68s.21.57.63.57a7.86 7.86 0 0 0 1.18-.13 22.58 22.58 0 0 1 4.16-.34 25.83 25.83 0 0 1 4.3.33 7.31 7.31 0 0 0 .9.09.63.63 0 0 0 .72-.71c0-.36-.23-.56-.7-.61-2.49-.24-4-1.23-4.49-3s-.72-4.92-.72-9.82v-9.84c0-.71.19-1.06.56-1.06.13 0 .39.2.76.61l21 23.89a1.27 1.27 0 0 0 .85.52c.31 0 .47-.2.47-.64l-.1-2.95v-4.41l.1-2 .32-14.76v-1.16c0-3.23 1-5 3-5.41.49-.07.74-.32.74-.72s-.25-.67-.74-.67a5.32 5.32 0 0 0-.67.05 44.16 44.16 0 0 1-5.06.45 18.54 18.54 0 0 1-2-.14 23.69 23.69 0 0 0-2.69-.24q-.66 0-.66.63c0 .33.25.52.76.55 2.13.16 3.57.89 4.3 2.19s1.09 3.81 1.09 7.51c0 3.15-.06 6.46-.2 9.94 0 1-.21 1.44-.53 1.44s-1.05-.6-2.1-1.8l-.78-.9-12.2-14c-.12-.16-.5-.62-1.13-1.37zm-41.48 2.08a8.31 8.31 0 0 1 .48-3.56 4.12 4.12 0 0 1 2.47-1.36c.39-.09.58-.29.58-.58s-.22-.64-.67-.62c-.28 0-.61 0-1 .09a44.67 44.67 0 0 1-4.87.24 53.13 53.13 0 0 1-5.56-.26 9 9 0 0 0-1.16-.07c-.43 0-.64.18-.64.55a1.28 1.28 0 0 0 .12.7 1.32 1.32 0 0 0 .68.21 6 6 0 0 1 2.76.85 3.36 3.36 0 0 1 1.31 1.93l.2 1.35v19.86a10.16 10.16 0 0 1-.63 4.24 2.91 2.91 0 0 1-2.3 1.5c-.4.08-.6.27-.6.58 0 .46.3.7.9.7s1.39-.05 2.38-.15a47.1 47.1 0 0 1 4.89-.24 19.57 19.57 0 0 1 3.18.22 9.93 9.93 0 0 0 1.46.19c.5 0 .76-.24.76-.72s-.43-.66-1.27-.73a3 3 0 0 1-2.69-1.75 13.79 13.79 0 0 1-.77-5.44v-1a15 15 0 0 1 .15-2.7 2.71 2.71 0 0 1 .75-1.26l1-1 .69-.68a1.12 1.12 0 0 1 .69-.43c.28 0 .63.37 1.07 1.09.49.87 1.78 2.72 3.87 5.57s3.8 5.07 5.12 6.7l.88 1.1a2.76 2.76 0 0 0 2.16 1.24c.23 0 .85-.07 1.84-.19a12.07 12.07 0 0 1 1.55-.1 37 37 0 0 1 3.82.24c.28 0 .5.05.67.05.46 0 .7-.2.71-.58a.7.7 0 0 0-.55-.77l-.49-.15a11.22 11.22 0 0 1-5.14-2.82 110.76 110.76 0 0 1-8.37-10.81l-1.67-2.31a4.88 4.88 0 0 1-1-2.06c0-.53.65-1.36 1.95-2.47.43-.38 1.23-1.13 2.4-2.27a60.59 60.59 0 0 1 5.85-5.14 9.09 9.09 0 0 1 3.67-1.75q1-.16 1-.69c0-.47-.27-.7-.81-.7s-1.71.1-3.29.28a17 17 0 0 1-1.82.12c-.67 0-1.82-.09-3.47-.28a16.16 16.16 0 0 0-1.94-.12c-.57 0-.86.2-.86.6s.25.65.74.65a2.65 2.65 0 0 1 1.59.43 1.32 1.32 0 0 1 .6 1.13q0 2.13-6.35 8l-3.29 2.9-2.26 2a3.31 3.31 0 0 1-1.1.7c-.26 0-.39-.31-.39-.89v-8.58z"/><path fill="#ff8200" d="M0 176.28h167.58V0H0v176.28" mask="url(#b)"/><path fill="#fff" d="M146.83 21.83v44.76h-15.76c0-8.24-7.76-14.92-17.33-14.92-7 0-13 3.57-15.76 8.71v56c0 11.88 8.79 21.52 19.64 21.55h.06v16.58H49.91v-16.63c10.86 0 19.66-9.67 19.66-21.55V60.38c-2.74-5.14-8.77-8.71-15.76-8.71-9.58 0-17.34 6.68-17.34 14.92H20.75V21.83z" mask="url(#b)"/></svg>