<?xml version="1.0" encoding="UTF-8" standalone="no"?>
<svg
   xmlns:dc="http://purl.org/dc/elements/1.1/"
   xmlns:cc="http://creativecommons.org/ns#"
   xmlns:rdf="http://www.w3.org/1999/02/22-rdf-syntax-ns#"
   xmlns:svg="http://www.w3.org/2000/svg"
   xmlns="http://www.w3.org/2000/svg"
   xmlns:sodipodi="http://sodipodi.sourceforge.net/DTD/sodipodi-0.dtd"
   xmlns:inkscape="http://www.inkscape.org/namespaces/inkscape"
   viewBox="0 0 16 16"
   version="1.1"
   id="svg39"
   sodipodi:docname="icon-bitbucket.svg"
   width="16"
   height="16"
   inkscape:version="0.92.3 (unknown)">
  <metadata
     id="metadata43">
    <rdf:RDF>
      <cc:Work
         rdf:about="">
        <dc:format>image/svg+xml</dc:format>
        <dc:type
           rdf:resource="http://purl.org/dc/dcmitype/StillImage" />
        <dc:title>Bitbucket-blue</dc:title>
      </cc:Work>
    </rdf:RDF>
  </metadata>
  <sodipodi:namedview
     pagecolor="#ffffff"
     bordercolor="#666666"
     borderopacity="1"
     objecttolerance="10"
     gridtolerance="10"
     guidetolerance="10"
     inkscape:pageopacity="0"
     inkscape:pageshadow="2"
     inkscape:window-width="1333"
     inkscape:window-height="744"
     id="namedview41"
     showgrid="false"
     fit-margin-top="0"
     fit-margin-left="0"
     fit-margin-right="0"
     fit-margin-bottom="0"
     inkscape:zoom="14.951251"
     inkscape:cx="16.652997"
     inkscape:cy="7.072791"
     inkscape:window-x="33"
     inkscape:window-y="24"
     inkscape:window-maximized="1"
     inkscape:current-layer="svg39"
     inkscape:snap-page="true"
     inkscape:snap-bbox="true"
     inkscape:bbox-paths="true"
     inkscape:bbox-nodes="true"
     inkscape:snap-bbox-edge-midpoints="true"
     inkscape:snap-bbox-midpoints="true" />
  <defs
     id="defs9">
    <style
       id="style2">.cls-1{fill:#253858;}.cls-2{fill:none;}.cls-3{fill:#2684ff;}.cls-4{fill:url(#New_Gradient_Swatch_1);}</style>
    <linearGradient
       id="New_Gradient_Swatch_1"
       x1="64.010002"
       y1="30.27"
       x2="32.990002"
       y2="54.48"
       gradientUnits="userSpaceOnUse"
       gradientTransform="translate(0.02579294,-6.2598337)">
      <stop
         offset="0.18"
         stop-color="#0052cc"
         id="stop4" />
      <stop
         offset="1"
         stop-color="#2684ff"
         id="stop6" />
    </linearGradient>
  </defs>
  <title
     id="title11">Bitbucket-blue</title>
  <symbol
     id="bitbucket"
     fill-rule="evenodd"
     clip-rule="evenodd"
     stroke-linejoin="round"
     stroke-miterlimit="1.414">
  <polygon
     class="cls-2"
     points="40.9,25.12 21.23,25.12 24.7,43.51 37.75,43.51 "
     id="polygon31"
     style="fill:none"
     transform="translate(0.02579294,-46.390167)" />
  <path
     style="fill:#828282;fill-opacity:1;stroke-width:0.25631714"
     d="M 0.51925875,0.8065027 A 0.51263432,0.51263432 0 0 0 0.00662443,1.4012386 L 2.1828172,14.611585 a 0.69718267,0.69718267 0 0 0 0.2878561,0.455564 0.69718267,0.69718267 0 0 0 0.059074,0.03705 0.69718267,0.69718267 0 0 0 0.062077,0.03104 0.69718267,0.69718267 0 0 0 0.06458,0.02453 0.69718267,0.69718267 0 0 0 0.067082,0.01803 0.69718267,0.69718267 0 0 0 0.045056,0.0074 0.6946195,0.6946195 0 0 0 0.027534,0.0045 0.6946195,0.6946195 0 0 0 0.00151,0 0.69718267,0.69718267 0 0 0 0.028535,0.0014 0.6946195,0.6946195 0 0 0 0.035544,0.0024 0.69718267,0.69718267 0 0 0 0.00301,0 H 13.304578 a 0.51263432,0.51263432 0 0 0 0.05107,-0.0019 0.51263432,0.51263432 0 0 0 0.464073,-0.429031 L 14.609697,9.8965501 15.993408,1.4035407 A 0.51263432,0.51263432 0 0 0 15.480772,0.80900584 Z M 5.4483576,5.6404839 H 10.490096 L 9.6825973,10.354316 H 6.3504742 Z"
     id="path33"
     inkscape:connector-curvature="0" />
  </symbol>
</svg>
