<?xml version="1.0" encoding="utf-8"?>
<!-- Generator: Adobe Illustrator 16.0.0, SVG Export Plug-In . SVG Version: 6.00 Build 0)  -->
<!DOCTYPE svg PUBLIC "-//W3C//DTD SVG 1.1//EN" "http://www.w3.org/Graphics/SVG/1.1/DTD/svg11.dtd">
<svg version="1.1" id="Layer_1" xmlns="http://www.w3.org/2000/svg" xmlns:xlink="http://www.w3.org/1999/xlink" x="0px" y="0px"
	 width="360.001px" height="40.868px" viewBox="683.999 172.98 360.001 40.868"
	 enable-background="new 683.999 172.98 360.001 40.868" xml:space="preserve">
<path fill="#FF8300" d="M1038.583,179.702h-3.514v12.3h-5.268v-18.878H1044c-0.296,0.292-0.188,0.735-0.587,1.31
	c-0.522,0.696-1.036,0.37-1.457,0.882c-0.391,0.472-0.223,0.968-0.588,1.458c-0.523,0.695-1.325,0.438-1.9,1.175
	C1038.999,178.538,1039.026,179.114,1038.583,179.702"/>
<path fill="#FF8300" d="M1022.371,173.16c-0.295,0.293-0.213,0.765-0.613,1.339c-0.521,0.692-1.034,0.369-1.455,0.878
	c-0.391,0.472-0.221,0.967-0.591,1.457c-0.519,0.696-1.31,0.44-1.896,1.174c-0.469,0.588-0.438,1.163-0.88,1.75h6.876v6.143h-5.701
	c-0.473,0-0.852,0.051-1.175-0.294c-0.248-0.264-0.296-0.517-0.293-0.878l0.021-11.569h-6.136l-0.016,13.33
	c-0.002,1.552,1.014,3.072,1.601,3.646c0.734,0.734,2.241,1.912,3.953,1.912h8.025l4.835-5.558l0.027-13.33H1022.371
	L1022.371,173.16z"/>
<path d="M852.444,181.059c-2.188,0-2.833,2.962-2.833,4.865c0,1.244,0.286,2.601,1.622,2.601c2.289,0,2.934-3.098,2.934-5.042
	C854.166,182.098,853.84,181.059,852.444,181.059 M855.86,183.951c0,2.596-1.704,5.409-4.628,5.409c-2.162,0-3.317-1.58-3.317-3.611
	c0-2.469,1.673-5.526,4.55-5.526C854.708,180.223,855.86,181.865,855.86,183.951"/>
<path d="M861.143,182.818c0.309,0,0.309-0.156,0.309-0.387c0-0.276,0-0.4-0.309-0.4h-1.036c-0.124,0-0.215-0.122-0.215-0.247
	c0-0.433,0.477-3.231,1.389-3.231c0.741,0,1.036,1.129,1.329,1.129c0.325,0,0.372-0.881,0.372-1.143c0-0.262,0.091-0.68-1.298-0.68
	c-1.438,0-2.688,1.331-3.153,2.796c-0.337,1.064-0.23,1.374-0.431,1.374h-1.159c-0.307,0-0.307,0.123-0.307,0.4
	c0,0.234,0,0.387,0.307,0.387h1.021c0.125,0,0.216,0.032,0.201,0.186l-0.741,6.287c-0.155,1.206-0.37,1.374-0.59,1.374
	c-0.569,0-0.601-1.097-1.032-1.097c-0.341,0-0.464,0.896-0.464,1.175c0,0.431,0.263,0.727,0.926,0.727
	c0.741,0,2.613-0.834,2.966-3.691l0.586-4.649c0.015-0.157,0.015-0.309,0.154-0.309H861.143L861.143,182.818L861.143,182.818z"/>
<path d="M715.333,175.354c0-1.867,1.735-1.142,1.735-1.867c0-0.312-0.7-0.259-0.829-0.259c-0.804,0-1.633,0.104-2.462,0.104
	c-0.7,0-1.348-0.104-2.021-0.104c-0.129,0-0.57,0.079-0.57,0.259c0,0.83,2.099,0.208,2.099,1.735v8.732
	c0,3.994,1.296,7.801,8.112,7.801c7.541,0,7.23-6.401,7.23-7.671v-8.034c0-2.384,1.53-1.812,1.53-2.539
	c0-0.157-0.209-0.285-0.337-0.285c-0.466,0-0.933,0.102-1.425,0.102c-1.013,0.002-2.024-0.101-3.035-0.101
	c-0.078,0-0.259,0.13-0.259,0.259c0,0.984,2.409-0.104,2.409,2.542v8.393c0,3.059-1.114,6.271-5.985,6.271
	c-3.5,0-6.195-1.891-6.195-6.038v-9.301H715.333L715.333,175.354z"/>
<path d="M733.609,188.283c0,3.235-2.031,2.217-2.031,3.024c0,0.117,0.021,0.255,0.299,0.255c0.163,0,1.364-0.092,2.172-0.092
	c1.131,0,1.778,0.092,2.331,0.092c0.231,0,0.255-0.184,0.255-0.301c0-0.623-2.032,0.186-2.032-1.892v-9.446
	c0-0.461,0.069-0.531,0.161-0.531c0.163,0,0.439,0.392,0.485,0.438l9.93,11.177c0.484,0.531,0.715,0.647,0.877,0.647
	c0.184,0,0.208-0.323,0.208-0.994v-13.37c0-1.686,1.361-1.27,1.361-1.871c0-0.138-0.092-0.206-0.229-0.206
	c-0.556,0-1.548,0.092-2.333,0.092c-0.74,0-1.41-0.092-2.102-0.092c-0.14,0-0.253,0.068-0.253,0.229
	c0,0.764,2.563-0.113,2.563,2.911v9.652c0,0.186-0.024,0.255-0.071,0.255c-0.045,0-0.137-0.092-0.276-0.255l-11.016-12.261
	c-0.139-0.162-0.346-0.532-0.599-0.532c-0.347,0-0.717,0.092-1.062,0.092c-0.371,0-0.716-0.092-1.086-0.092
	c-0.115,0-0.347,0.092-0.347,0.231c0,0.854,2.795-0.485,2.795,4.319V188.283z"/>
<path d="M751.575,189.024c0,2.284-1.8,1.523-1.8,2.194c0,0.229,0.068,0.347,0.484,0.347c0.324,0,0.808-0.093,2.217-0.093
	c0.992,0,1.986,0.093,2.517,0.093c0.395,0,0.462-0.069,0.462-0.231c0-0.694-2.056-0.163-2.056-1.732v-12.402
	c0-1.732,1.664-1.201,1.664-1.756c0-0.183-0.07-0.229-0.44-0.229c-0.715,0-1.431,0.091-2.147,0.091c-0.854,0-1.687-0.091-2.54-0.091
	c-0.185,0-0.23,0.047-0.23,0.251c0,0.509,1.846,0.047,1.87,1.732V189.024L751.575,189.024z"/>
<path d="M763.211,190.479c0.209,0.483,0.484,1.452,0.855,1.452c0.345,0,0.508-0.76,0.761-1.339l5.751-13.6
	c0.647-1.547,1.293-0.968,1.293-1.479c0-0.206-0.14-0.299-0.395-0.299c-0.323,0-0.669,0.093-1.778,0.093
	c-0.508,0-1.014-0.093-1.522-0.093c-0.231,0-0.348,0.069-0.348,0.299c0,0.532,1.479,0.092,1.479,1.156
	c0.091,0.484-0.187,1.225-0.323,1.568l-4.02,9.907c-0.115,0.278-0.183,0.648-0.415,0.648c-0.255,0-0.416-0.531-0.924-1.756
	l-4.04-9.515c-0.092-0.207-0.209-0.577-0.209-0.899c0-0.83,0.971-0.855,0.947-1.179c0-0.137-0.185-0.229-0.323-0.229
	c-0.322,0-1.2,0.092-1.824,0.092c-0.693,0-1.408-0.092-2.124-0.092c-0.208,0-0.324,0.114-0.324,0.323
	c0,0.507,1.202,0.067,1.779,1.454L763.211,190.479z"/>
<path d="M775.798,177.638c0-1.547-0.045-1.455,2.171-1.455c0.923,0,3.325-0.139,3.927,0.647c0.368,0.53,0,1.639,0.551,1.639
	c0.14,0,0.463-0.188,0.463-2.75c0-0.277-0.045-0.507-0.232-0.507c-0.715,0-2.839,0.091-3.302,0.091
	c-0.969,0-2.169-0.091-6.533-0.091c-0.671,0-0.809,0.091-0.809,0.276c0,0.277,0.509,0.325,0.692,0.369
	c1.247,0.186,1.247,1.292,1.247,2.332v10.53c0,1.085-0.049,1.732-0.648,2.008c-0.738,0.37-0.97,0.324-1.014,0.603
	c0,0.185,0.137,0.23,0.346,0.23c0.924,0,1.894-0.069,2.817-0.092c1.755-0.047,3.509,0.092,5.264,0.092
	c1.018,0,1.525,0.048,2.265-0.784c0.552-0.6,1.153-1.408,1.153-2.241c0-0.046-0.021-0.276-0.184-0.276
	c-0.3,0-1.085,2.376-6.42,2.376c-1.939,0-1.753-0.552-1.753-1.914v-4.251c0-0.347-0.069-0.736,0.414-0.736h3.418
	c1.939,0,1.155,2.031,1.87,2.031c0.162,0,0.254-0.092,0.254-0.3c0-0.624-0.048-1.223-0.048-1.825c0-0.736,0.048-1.524,0.048-2.332
	c0-0.186-0.069-0.44-0.254-0.44c-0.553,0,0.069,1.849-2.333,1.849h-2.495c-0.923,0-0.876,0-0.876-0.786v-4.297L775.798,177.638
	L775.798,177.638z"/>
<path d="M788.565,176.831c0-0.9,0.487-0.855,1.317-0.855c2.262,0,4.409,0.948,4.409,3.764c0,2.864-2.217,3.279-3.209,3.279
	c-1.085,0-2.517,0.116-2.517-0.323V176.831z M793.115,183.205c1.616-0.648,2.911-2.195,2.911-3.996c0-4.459-5.102-3.995-5.474-3.995
	c-1.199,0-2.515,0.091-3.855,0.091c-1.178,0-1.062-0.091-1.479-0.091c-0.279,0-0.461,0.139-0.461,0.276
	c0,0.784,1.986-0.162,1.986,2.056v11.753c0,1.755-1.688,1.431-1.688,2.009c0,0.14,0.093,0.255,0.232,0.255
	c0.878,0,1.756-0.093,2.631-0.093c1.917,0,2.449,0.093,2.657,0.093c0.186,0,0.391,0.047,0.391-0.185c0-0.786-2.4-0.068-2.4-2.055
	v-4.873c0-0.232-0.139-0.647,0.599-0.647c2.586,0,2.24-0.068,3.073,1.226l2.562,4.042c0.877,1.314,1.778,2.494,3.463,2.494
	c0.209,0,1.501,0,1.501-0.277c0-0.556-1.131,0.299-2.796-2.241L793.115,183.205z"/>
<path d="M800.143,190.455c0.092,0.416,2.193,1.271,3.9,1.271c5.243,0,6.604-2.911,6.604-4.849c0-6.373-9.374-3.833-9.374-8.174
	c0-2.125,1.938-3.004,3.763-3.004c2.032,0,3.719,1.017,4.41,3.004c0.068,0.206,0.229,0.691,0.485,0.691
	c0.23,0,0.275-0.16,0.253-0.345l-0.347-3.142c-0.021-0.253-0.137-0.323-0.276-0.323c-0.231,0-0.277,0.254-0.487,0.254
	c-0.322,0-1.084-0.833-3.878-0.833c-2.657,0-5.127,1.408-5.127,4.342c0,6.028,9.375,3.533,9.375,7.99
	c0,2.424-2.149,3.649-4.342,3.649c-3.186,0-4.572-2.401-4.851-3.464c-0.114-0.485-0.114-0.761-0.438-0.761
	c-0.232,0-0.346,0.253-0.253,0.717L800.143,190.455z"/>
<path d="M814.25,189.024c0,2.284-1.8,1.523-1.8,2.194c0,0.229,0.068,0.347,0.486,0.347c0.322,0,0.807-0.093,2.214-0.093
	c0.995,0,1.986,0.093,2.519,0.093c0.392,0,0.463-0.069,0.463-0.231c0-0.694-2.056-0.163-2.056-1.732v-12.402
	c0-1.732,1.662-1.201,1.662-1.756c0-0.183-0.068-0.229-0.437-0.229c-0.716,0-1.434,0.091-2.15,0.091
	c-0.853,0-1.684-0.091-2.539-0.091c-0.184,0-0.23,0.047-0.23,0.251c0,0.509,1.848,0.047,1.871,1.732L814.25,189.024L814.25,189.024
	L814.25,189.024z"/>
<path d="M825.656,189.554c0,1.387-1.822,1.155-1.822,1.708c0,0.232,0.067,0.301,0.277,0.301c0.137,0,0.575-0.092,3.161-0.092
	c0.669,0,1.317,0.092,1.873,0.092c0.23,0,0.207-0.208,0.207-0.276c0-0.717-1.871,0.045-1.871-1.896v-11.776
	c0-1.224-0.114-1.132,0.923-1.132h3.302c2.356,0,1.109,1.756,1.963,1.756c0.302,0,0.277-0.277,0.253-0.508l-0.115-1.847
	c-0.023-0.531-0.139-0.67-0.669-0.67c-0.461,0-2.586,0.092-6.765,0.092c-2.98,0-4.758-0.092-6.558-0.092
	c-0.416,0-0.394,0.624-0.416,0.9l-0.253,2.24c0,0.116,0.092,0.276,0.231,0.276c0.3,0,0.323-0.3,0.392-0.531
	c0.416-1.269,0.46-1.616,1.894-1.616h3.763c0.325,0.024,0.231,0.901,0.231,1.062V189.554L825.656,189.554z"/>
<path d="M839.91,182.833c0.187,0.281,0.533,0.741,0.533,1.18v5.588c0,1.639-1.777,1.038-1.777,1.686
	c0,0.252,0.136,0.277,0.345,0.277c0.208,0,1.04-0.093,2.077-0.093c0.857,0,2.196,0.093,2.542,0.093c0.323,0,0.531-0.024,0.531-0.231
	c0-0.716-1.894-0.07-1.894-2.078v-5.659c0-0.346,0.187-0.463,0.556-1.04l3.231-5.034c0.368-0.578,0.669-1.224,1.294-1.59
	c0.159-0.093,0.551-0.186,0.551-0.439c0-0.117-0.115-0.279-0.252-0.279c-0.669,0-1.339,0.093-2.009,0.093
	c-0.556,0-1.133-0.093-1.686-0.093c-0.256,0-0.485,0.047-0.485,0.345c0,0.556,1.732,0.07,1.732,1.202
	c0,0.623-0.323,1.016-0.485,1.271l-2.378,3.856c-0.183,0.3-0.322,0.461-0.439,0.461c-0.14,0-0.278-0.137-0.461-0.415l-2.795-4.459
	c-0.14-0.205-0.415-0.576-0.415-0.945c0-0.671,1.084-0.692,1.084-1.085c0-0.208-0.276-0.229-0.44-0.229
	c-0.229,0-0.852,0.091-1.617,0.091c-1.568,0-2.007-0.091-2.631-0.091c-0.162,0-0.3,0.183-0.3,0.343c0,0.394,1.131,0.116,1.731,1.11
	L839.91,182.833z"/>
<path d="M687.29,185.624c0,1.405-1.337,0.84-1.337,1.301c0,0.259,0.202,0.246,0.415,0.246c0.472,0,0.863-0.048,1.655-0.048
	c0.791,0,1.183,0.048,1.655,0.048c0.343,0,0.581,0.035,0.581-0.246c0-0.334-1.513,0.01-1.513-1.444v-5.347
	c0-0.568,0.117-0.627,0.603-0.627h1.006c1.36-0.048,0.98,1.264,1.455,1.264c0.307,0,0.178-0.46,0.153-0.6l-0.129-1.089
	c-0.013-0.118-0.013-0.283-0.19-0.283c-1.099,0-1.891,0.047-3.619,0.047s-2.519-0.047-3.619-0.047c-0.177,0-0.177,0.165-0.19,0.283
	l-0.188,1.561c-0.023,0.154-0.095,0.416,0.154,0.416c0.532,0,0.176-1.55,1.513-1.55h0.995c0.484,0,0.602,0.058,0.602,0.627V185.624
	L687.29,185.624L687.29,185.624z"/>
<path d="M700.604,180.041c0-1.16,0.852-0.651,0.852-1.101c0-0.105-0.047-0.142-0.249-0.142c-0.508,0-0.947,0.047-1.562,0.047
	c-0.733,0-1.04-0.047-1.524-0.047c-0.166,0-0.273-0.025-0.273,0.19c0,0.342,1.302-0.084,1.302,1.216v1.67
	c0,0.259-0.071,0.531-0.415,0.531h-3.513c-0.247,0-0.296-0.154-0.296-0.472v-1.883c0-1.052,0.91-0.71,0.91-1.076
	c0-0.118-0.104-0.176-0.271-0.176c-0.343,0-0.815,0.048-1.526,0.048c-0.614,0-0.97-0.048-1.323-0.048c-0.226,0-0.58,0.013-0.58,0.19
	c0,0.449,1.335-0.069,1.335,1.216v5.278c0,1.465-1.004,1.039-1.004,1.512c0,0.155,0.119,0.177,0.26,0.177
	c0.591,0,1.089-0.047,1.584-0.047c0.853,0,1.242,0.047,1.727,0.047c0.378,0,0.356-0.095,0.356-0.165c0-0.425-1.467,0-1.467-1.467
	v-1.857c0-0.518,0.036-0.637,0.58-0.637h3.157c0.521,0,0.485,0.13,0.485,0.627v2.129c0,1.146-0.863,0.826-0.863,1.242
	c0,0.081,0.07,0.128,0.236,0.128c0.603,0,1.064-0.047,1.489-0.047c0.485,0,1.183,0.047,1.573,0.047c0.155,0,0.249,0.013,0.249-0.141
	c0-0.461-1.23-0.023-1.23-1.528v-5.462H700.604L700.604,180.041z"/>
<path d="M705.202,180.182c0-0.815,0.048-0.83,1.478-0.83c2.283,0,1.362,1.384,1.917,1.384c0.271,0,0.211-0.386,0.199-0.544
	l-0.046-1.17c0-0.106-0.082-0.224-0.236-0.224c-1.04,0-1.857,0.048-2.695,0.048c-1.811,0-2.663-0.048-3.146-0.048
	c-0.167,0-0.261,0.094-0.261,0.2c0,0.473,1.336,0.097,1.336,1.158v5.536c0,1.444-0.898,0.802-0.898,1.349
	c0,0.069,0.072,0.128,0.225,0.128c0.65,0,1.147-0.047,1.513-0.047c0.592,0,1.301,0.047,3.099,0.047c0.97,0,1.667-0.968,1.667-1.892
	c0-0.225-0.083-0.26-0.129-0.26c-0.45,0-0.285,1.549-3.218,1.549c-0.85,0-0.805-0.425-0.805-1.158v-1.513
	c0-0.686-0.046-0.827,0.499-0.827h0.873c1.229,0,0.899,1.255,1.277,1.255c0.283,0,0.214-0.426,0.202-0.581l-0.083-2.106
	c-0.012-0.319-0.143-0.294-0.225-0.294c-0.238,0-0.273,1.087-1.289,1.087h-0.747c-0.508,0-0.508-0.083-0.508-0.591V180.182
	L705.202,180.182z"/>
<path d="M868.73,189.286c0,1.557-2.055,1.298-2.055,1.922c0,0.259,0.08,0.335,0.313,0.335c0.157,0,0.648-0.104,3.558-0.104
	c0.755,0,1.482,0.104,2.109,0.104c0.257,0,0.232-0.233,0.232-0.312c0-0.805-2.105,0.056-2.105-2.128v-13.253
	c0-1.379-0.129-1.275,1.039-1.275h3.719c2.65,0,1.243,1.979,2.207,1.979c0.337,0,0.313-0.314,0.286-0.573l-0.132-2.079
	c-0.024-0.597-0.154-0.754-0.752-0.754c-0.516,0-2.909,0.105-7.612,0.105c-3.354,0-5.354-0.105-7.382-0.105
	c-0.466,0-0.44,0.702-0.466,1.013l-0.285,2.522c0,0.129,0.104,0.311,0.259,0.311c0.337,0,0.363-0.335,0.443-0.597
	c0.466-1.43,0.52-1.82,2.13-1.82h4.237c0.364,0.027,0.26,1.014,0.26,1.197v13.515H868.73z"/>
<path d="M883.054,175.929c0-1.732-0.055-1.631,2.433-1.631c1.036,0,3.728-0.155,4.398,0.724c0.413,0.598,0,1.839,0.618,1.839
	c0.156,0,0.518-0.207,0.518-3.078c0-0.312-0.052-0.57-0.259-0.57c-0.8,0-3.18,0.104-3.7,0.104c-1.082,0-2.433-0.104-7.319-0.104
	c-0.751,0-0.905,0.104-0.905,0.312c0,0.312,0.566,0.363,0.775,0.413c1.396,0.209,1.396,1.449,1.396,2.615v11.795
	c0,1.216-0.05,1.941-0.723,2.253c-0.827,0.413-1.087,0.36-1.142,0.671c0,0.207,0.157,0.259,0.392,0.259
	c1.034,0,2.12-0.078,3.154-0.104c1.967-0.052,3.933,0.104,5.899,0.104c1.139,0,1.707,0.052,2.534-0.881
	c0.621-0.672,1.293-1.576,1.293-2.508c0-0.051-0.022-0.312-0.204-0.312c-0.337,0-1.219,2.666-7.194,2.666
	c-2.171,0-1.964-0.621-1.964-2.148v-4.761c0-0.389-0.077-0.826,0.464-0.826h3.828c2.175,0,1.298,2.276,2.098,2.276
	c0.18,0,0.284-0.104,0.284-0.337c0-0.698-0.05-1.371-0.05-2.042c0-0.828,0.05-1.708,0.05-2.612c0-0.208-0.077-0.491-0.284-0.491
	c-0.621,0,0.077,2.069-2.614,2.069h-2.791c-1.037,0-0.984,0-0.984-0.879V175.929L883.054,175.929z"/>
<path d="M896.129,187.855c0,3.621-2.278,2.481-2.278,3.39c0,0.128,0.025,0.283,0.334,0.283c0.183,0,1.528-0.104,2.435-0.104
	c1.269,0,1.991,0.104,2.614,0.104c0.259,0,0.286-0.207,0.286-0.335c0-0.698-2.277,0.207-2.277-2.12v-10.585
	c0-0.516,0.075-0.595,0.18-0.595c0.182,0,0.493,0.44,0.546,0.492l11.122,12.521c0.543,0.594,0.8,0.723,0.984,0.723
	c0.206,0,0.231-0.361,0.231-1.111V175.54c0-1.888,1.525-1.424,1.525-2.096c0-0.155-0.103-0.233-0.259-0.233
	c-0.621,0-1.732,0.103-2.612,0.103c-0.827,0-1.58-0.103-2.353-0.103c-0.154,0-0.286,0.078-0.286,0.259
	c0,0.854,2.87-0.128,2.87,3.261v10.813c0,0.206-0.024,0.283-0.077,0.283c-0.052,0-0.156-0.102-0.309-0.283l-12.341-13.738
	c-0.159-0.183-0.389-0.597-0.671-0.597c-0.389,0-0.805,0.104-1.19,0.104c-0.416,0-0.801-0.104-1.217-0.104
	c-0.129,0-0.389,0.104-0.389,0.259c0,0.958,3.133-0.544,3.133,4.837v9.548h-0.005v0.001H896.129z"/>
<path d="M916.045,187.855c0,3.621-2.275,2.481-2.275,3.39c0,0.128,0.025,0.283,0.335,0.283c0.182,0,1.527-0.104,2.435-0.104
	c1.268,0,1.99,0.104,2.611,0.104c0.259,0,0.284-0.207,0.284-0.335c0-0.698-2.275,0.207-2.275-2.12v-10.585
	c0-0.516,0.077-0.595,0.182-0.595c0.18,0,0.489,0.44,0.543,0.492l11.125,12.521c0.543,0.594,0.8,0.723,0.984,0.723
	c0.204,0,0.231-0.361,0.231-1.111V175.54c0-1.888,1.523-1.424,1.523-2.096c0-0.155-0.101-0.233-0.257-0.233
	c-0.618,0-1.734,0.103-2.612,0.103c-0.827,0-1.577-0.103-2.357-0.103c-0.151,0-0.281,0.078-0.281,0.259
	c0,0.854,2.871-0.128,2.871,3.261v10.813c0,0.206-0.027,0.283-0.08,0.283c-0.05,0-0.154-0.102-0.307-0.283l-12.343-13.738
	c-0.154-0.183-0.387-0.597-0.673-0.597c-0.387,0-0.8,0.104-1.189,0.104c-0.413,0-0.802-0.104-1.216-0.104
	c-0.129,0-0.386,0.104-0.386,0.259c0,0.958,3.13-0.544,3.13,4.837v9.548L916.045,187.855L916.045,187.855L916.045,187.855z"/>
<path d="M937.844,175.929c0-1.732-0.054-1.631,2.433-1.631c1.034,0,3.726-0.155,4.398,0.724c0.414,0.598,0,1.839,0.618,1.839
	c0.157,0,0.519-0.207,0.519-3.078c0-0.312-0.053-0.57-0.259-0.57c-0.801,0-3.181,0.104-3.699,0.104
	c-1.088,0-2.434-0.104-7.319-0.104c-0.752,0-0.909,0.104-0.909,0.312c0,0.312,0.568,0.363,0.777,0.413
	c1.396,0.209,1.396,1.447,1.396,2.615v11.795c0,1.216-0.051,1.941-0.724,2.253c-0.827,0.413-1.089,0.36-1.141,0.671
	c0,0.207,0.159,0.259,0.389,0.259c1.036,0,2.121-0.078,3.155-0.104c1.969-0.052,3.935,0.104,5.903,0.104
	c1.134,0,1.704,0.052,2.532-0.881c0.62-0.672,1.295-1.576,1.295-2.508c0-0.051-0.027-0.312-0.206-0.312
	c-0.337,0-1.219,2.666-7.194,2.666c-2.171,0-1.965-0.621-1.965-2.148v-4.761c0-0.389-0.074-0.826,0.464-0.826h3.828
	c2.176,0,1.296,2.276,2.099,2.276c0.179,0,0.283-0.104,0.283-0.337c0-0.698-0.052-1.371-0.052-2.042
	c0-0.828,0.052-1.708,0.052-2.612c0-0.208-0.077-0.491-0.283-0.491c-0.621,0,0.077,2.069-2.612,2.069h-2.794
	c-1.036,0-0.984,0-0.984-0.879V175.929L937.844,175.929z"/>
<path d="M949.494,190.286c0.102,0.467,2.457,1.422,4.371,1.422c5.871,0,7.398-3.26,7.398-5.433c0-7.14-10.504-4.294-10.504-9.157
	c0-2.38,2.173-3.363,4.219-3.363c2.275,0,4.165,1.137,4.938,3.363c0.079,0.232,0.262,0.777,0.546,0.777
	c0.259,0,0.312-0.182,0.286-0.389l-0.389-3.518c-0.025-0.284-0.157-0.364-0.312-0.364c-0.257,0-0.31,0.284-0.543,0.284
	c-0.361,0-1.214-0.929-4.345-0.929c-2.973,0-5.743,1.578-5.743,4.863c0,6.751,10.501,3.957,10.501,8.95
	c0,2.718-2.402,4.087-4.859,4.087c-3.571,0-5.124-2.693-5.433-3.88c-0.13-0.544-0.13-0.854-0.491-0.854
	c-0.262,0-0.389,0.283-0.286,0.8L949.494,190.286z"/>
<path d="M963.153,190.286c0.104,0.467,2.459,1.422,4.373,1.422c5.871,0,7.396-3.26,7.396-5.433c0-7.14-10.502-4.294-10.502-9.157
	c0-2.38,2.174-3.363,4.219-3.363c2.275,0,4.165,1.137,4.939,3.363c0.078,0.232,0.257,0.777,0.544,0.777
	c0.259,0,0.312-0.182,0.284-0.389l-0.387-3.518c-0.025-0.284-0.157-0.364-0.31-0.364c-0.259,0-0.313,0.284-0.545,0.284
	c-0.361,0-1.214-0.929-4.347-0.929c-2.973,0-5.741,1.578-5.741,4.863c0,6.751,10.504,3.957,10.504,8.95
	c0,2.718-2.407,4.087-4.864,4.087c-3.573,0-5.122-2.693-5.433-3.88c-0.13-0.544-0.13-0.854-0.494-0.854
	c-0.257,0-0.386,0.283-0.283,0.8L963.153,190.286z"/>
<path d="M980.392,175.929c0-1.732-0.052-1.631,2.433-1.631c1.034,0,3.726-0.155,4.398,0.724c0.414,0.598,0,1.839,0.618,1.839
	c0.157,0,0.519-0.207,0.519-3.078c0-0.312-0.053-0.57-0.26-0.57c-0.802,0-3.182,0.104-3.7,0.104c-1.087,0-2.433-0.104-7.319-0.104
	c-0.752,0-0.909,0.104-0.909,0.312c0,0.312,0.573,0.363,0.777,0.413c1.398,0.209,1.398,1.449,1.398,2.615v11.795
	c0,1.216-0.053,1.941-0.724,2.253c-0.829,0.413-1.086,0.36-1.139,0.671c0,0.207,0.157,0.259,0.387,0.259
	c1.039,0,2.123-0.078,3.157-0.104c1.966-0.052,3.933,0.104,5.898,0.104c1.137,0,1.71,0.052,2.535-0.881
	c0.62-0.672,1.295-1.576,1.295-2.508c0-0.051-0.027-0.312-0.209-0.312c-0.334,0-1.214,2.666-7.189,2.666
	c-2.173,0-1.967-0.621-1.967-2.148v-4.761c0-0.389-0.077-0.826,0.464-0.826h3.83c2.174,0,1.294,2.276,2.094,2.276
	c0.182,0,0.286-0.104,0.286-0.337c0-0.698-0.05-1.371-0.05-2.042c0-0.828,0.05-1.708,0.05-2.612c0-0.208-0.077-0.491-0.286-0.491
	c-0.62,0,0.08,2.069-2.611,2.069h-2.794c-1.034,0-0.982,0-0.982-0.879V175.929L980.392,175.929z"/>
<path d="M994.431,175.929c0-1.732-0.053-1.631,2.433-1.631c1.034,0,3.723-0.155,4.396,0.724c0.414,0.598,0,1.839,0.621,1.839
	c0.156,0,0.516-0.207,0.516-3.078c0-0.312-0.053-0.57-0.257-0.57c-0.805,0-3.183,0.104-3.7,0.104c-1.089,0-2.433-0.104-7.322-0.104
	c-0.752,0-0.904,0.104-0.904,0.312c0,0.312,0.568,0.363,0.775,0.413c1.397,0.209,1.397,1.449,1.397,2.615v11.795
	c0,1.216-0.05,1.941-0.725,2.253c-0.828,0.413-1.085,0.36-1.137,0.671c0,0.207,0.154,0.259,0.386,0.259
	c1.037,0,2.121-0.078,3.158-0.104c1.964-0.052,3.93,0.104,5.898,0.104c1.137,0,1.705,0.052,2.534-0.881
	c0.621-0.672,1.291-1.576,1.291-2.508c0-0.051-0.022-0.312-0.207-0.312c-0.334,0-1.211,2.666-7.189,2.666
	c-2.173,0-1.964-0.621-1.964-2.148v-4.761c0-0.389-0.08-0.826,0.466-0.826h3.826c2.175,0,1.295,2.276,2.093,2.276
	c0.185,0,0.287-0.104,0.287-0.337c0-0.698-0.053-1.371-0.053-2.042c0-0.828,0.053-1.708,0.053-2.612
	c0-0.208-0.075-0.491-0.287-0.491c-0.618,0,0.082,2.069-2.609,2.069h-2.796c-1.034,0-0.979,0-0.979-0.879V175.929L994.431,175.929z"
	/>
<path fill="none" stroke="#000000" stroke-width="1.121" stroke-miterlimit="3.864" d="M722.375,194.923"/>
<rect x="684.483" y="197.721" width="350.773" height="0.859"/>
<path d="M1028.841,204.892c0-0.965-0.027-0.91,1.359-0.91c0.582,0,2.084-0.087,2.459,0.406c0.232,0.334,0,1.025,0.348,1.025
	c0.087,0,0.289-0.115,0.289-1.721c0-0.173-0.027-0.318-0.146-0.318c-0.445,0-1.777,0.061-2.066,0.061
	c-0.609,0-1.359-0.061-4.094-0.061c-0.42,0-0.507,0.061-0.507,0.174c0,0.174,0.318,0.204,0.432,0.229
	c0.784,0.117,0.784,0.814,0.784,1.461v6.596c0,0.681-0.029,1.086-0.404,1.26c-0.466,0.229-0.609,0.203-0.637,0.376
	c0,0.116,0.084,0.146,0.216,0.146c0.58,0,1.185-0.044,1.765-0.059c1.098-0.028,2.198,0.059,3.298,0.059
	c0.637,0,0.955,0.026,1.416-0.491c0.348-0.378,0.726-0.884,0.726-1.406c0-0.028-0.017-0.173-0.116-0.173
	c-0.19,0-0.682,1.49-4.021,1.49c-1.216,0-1.1-0.347-1.1-1.2v-2.663c0-0.214-0.043-0.46,0.262-0.46h2.141
	c1.214,0,0.721,1.271,1.171,1.271c0.1,0,0.159-0.056,0.159-0.187c0-0.39-0.029-0.767-0.029-1.141c0-0.466,0.029-0.958,0.029-1.46
	c0-0.117-0.046-0.276-0.159-0.276c-0.348,0,0.043,1.157-1.459,1.157h-1.564c-0.575,0-0.548,0-0.548-0.49v-2.696H1028.841
	L1028.841,204.892z M1020.189,204.806c0-1.258,1.057-0.898,1.057-1.228c0-0.174-0.086-0.202-0.274-0.202
	c-0.217,0-0.564,0.059-1.39,0.059c-0.707,0-1.154-0.059-1.459-0.059c-0.188,0-0.291,0.028-0.291,0.188
	c0,0.289,1.216,0.189,1.216,0.939v7.334c0,0.681-0.029,1.085-0.404,1.261c-0.464,0.229-0.606,0.202-0.639,0.376
	c0,0.115,0.089,0.146,0.218,0.146c0.58,0,1.187-0.044,1.765-0.059c1.103-0.028,2.2,0.059,3.298,0.059
	c0.637,0,0.955,0.026,1.419-0.492c0.348-0.377,0.723-0.883,0.723-1.405c0-0.028-0.017-0.175-0.116-0.175
	c-0.188,0-0.68,1.492-4.021,1.492c-1.214,0-1.1-0.348-1.1-1.203V204.806L1020.189,204.806z M1011.569,204.806
	c0-1.258,1.055-0.898,1.055-1.228c0-0.174-0.086-0.202-0.274-0.202c-0.216,0-0.563,0.059-1.387,0.059
	c-0.709,0-1.157-0.059-1.462-0.059c-0.188,0-0.291,0.028-0.291,0.188c0,0.289,1.217,0.189,1.217,0.939v7.334
	c0,0.681-0.03,1.085-0.407,1.261c-0.462,0.229-0.607,0.202-0.634,0.376c0,0.115,0.086,0.146,0.218,0.146
	c0.577,0,1.182-0.044,1.764-0.059c1.096-0.028,2.196,0.059,3.299,0.059c0.634,0,0.952,0.026,1.413-0.492
	c0.349-0.377,0.726-0.883,0.726-1.405c0-0.028-0.016-0.175-0.116-0.175c-0.19,0-0.682,1.492-4.021,1.492
	c-1.217,0-1.101-0.348-1.101-1.203L1011.569,204.806L1011.569,204.806z M1005.335,212.025c0,1.431-1.128,0.957-1.128,1.375
	c0,0.144,0.043,0.217,0.303,0.217c0.202,0,0.507-0.059,1.389-0.059c0.62,0,1.243,0.059,1.575,0.059c0.248,0,0.291-0.044,0.291-0.144
	c0-0.436-1.287-0.103-1.287-1.088v-7.768c0-1.083,1.042-0.75,1.042-1.098c0-0.116-0.046-0.146-0.275-0.146
	c-0.445,0-0.898,0.059-1.346,0.059c-0.536,0-1.057-0.059-1.591-0.059c-0.114,0-0.144,0.03-0.144,0.16
	c0,0.317,1.157,0.027,1.171,1.083V212.025L1005.335,212.025z M997.336,212.938c0.129,0.301,0.302,0.911,0.536,0.911
	c0.216,0,0.318-0.478,0.478-0.84l3.598-8.52c0.407-0.969,0.812-0.606,0.812-0.924c0-0.129-0.086-0.188-0.245-0.188
	c-0.202,0-0.421,0.059-1.113,0.059c-0.321,0-0.637-0.059-0.957-0.059c-0.144,0-0.217,0.041-0.217,0.188
	c0,0.333,0.928,0.057,0.928,0.722c0.057,0.307-0.116,0.769-0.202,0.983l-2.517,6.208c-0.072,0.174-0.115,0.404-0.261,0.404
	c-0.159,0-0.26-0.333-0.578-1.099l-2.532-5.959c-0.059-0.128-0.132-0.363-0.132-0.565c0-0.521,0.609-0.533,0.594-0.735
	c0-0.087-0.113-0.146-0.2-0.146c-0.202,0-0.752,0.059-1.141,0.059c-0.435,0-0.885-0.059-1.332-0.059c-0.13,0-0.203,0.07-0.203,0.202
	c0,0.319,0.753,0.043,1.114,0.911L997.336,212.938z M985.893,205.383c-0.518-0.81-0.709-1.112-0.709-1.273
	c0-0.419,0.639-0.347,0.639-0.546c0-0.148-0.13-0.191-0.245-0.191c-0.448,0-0.912,0.062-1.361,0.062
	c-1.258,0-1.258-0.062-1.59-0.062c-0.102,0-0.175,0.073-0.175,0.175c0,0.388,0.693-0.233,1.765,1.362l2.241,3.354
	c0.059,0.087,0.146,0.218,0.146,0.272c0,0.044-0.071,0.146-0.146,0.248l-2.657,3.817c-0.478,0.679-1.332,0.549-1.332,0.881
	c0,0.088,0.043,0.132,0.175,0.132c0.402,0,0.822-0.059,1.228-0.059c0.636,0,1.027,0.059,1.404,0.059
	c0.128,0,0.216-0.044,0.216-0.144c0-0.347-0.911-0.147-0.911-0.664c0-0.278,0.289-0.685,0.62-1.177l1.578-2.34
	c0.089-0.129,0.159-0.159,0.2-0.159c0.061,0,0.102,0.059,0.146,0.13l1.809,2.85c0.275,0.433,0.318,0.533,0.318,0.738
	c0,0.377-0.606,0.318-0.606,0.623c0,0.115,0.045,0.144,0.188,0.144c0.202,0,0.736-0.059,1.286-0.059
	c0.578,0,1.114,0.059,1.316,0.059c0.116,0,0.262-0.018,0.262-0.159c0-0.462-0.537,0.144-1.289-1.055l-2.517-3.964
	c-0.1-0.159-0.173-0.301-0.173-0.377c0-0.114,0.073-0.216,0.116-0.274l2.2-3.11c0.825-1.171,1.416-0.854,1.416-1.156
	c0-0.059-0.029-0.146-0.115-0.146c-0.101,0-0.13,0.059-1.101,0.059c-0.966,0-0.966-0.074-1.33-0.059
	c-0.086,0-0.186,0.017-0.186,0.13c0,0.348,0.793,0.218,0.793,0.636c0,0.26-0.303,0.682-0.478,0.943l-1.3,1.863
	c-0.248,0.347-0.348,0.537-0.437,0.537c-0.084,0-0.171-0.175-0.375-0.492L985.893,205.383z M975.898,213.719
	c3.226,0,5.469-2.097,5.469-5.353c0-2.994-2.271-5.124-5.222-5.124c-2.969,0-5.31,2.187-5.31,5.197
	C970.836,211.489,972.759,213.719,975.898,213.719 M975.709,203.724c2.823,0,4.602,2.559,4.602,5.192
	c0,2.675-1.693,4.367-3.806,4.367c-2.864,0-4.616-2.587-4.616-5.265C971.893,205.732,973.279,203.724,975.709,203.724
	 M960.305,211.563c0,2.025-1.273,1.39-1.273,1.894c0,0.073,0.017,0.161,0.189,0.161c0.102,0,0.854-0.06,1.359-0.06
	c0.711,0,1.113,0.06,1.461,0.06c0.146,0,0.159-0.118,0.159-0.188c0-0.392-1.272,0.115-1.272-1.186v-5.918
	c0-0.289,0.041-0.333,0.1-0.333c0.103,0,0.277,0.248,0.305,0.275l6.222,7.002c0.3,0.33,0.447,0.402,0.548,0.402
	c0.116,0,0.129-0.2,0.129-0.621v-8.374c0-1.057,0.855-0.795,0.855-1.174c0-0.088-0.057-0.129-0.146-0.129
	c-0.348,0-0.969,0.06-1.46,0.06c-0.463,0-0.884-0.06-1.318-0.06c-0.084,0-0.156,0.041-0.156,0.146c0,0.475,1.604-0.075,1.604,1.821
	v6.048c0,0.116-0.016,0.158-0.046,0.158c-0.026,0-0.086-0.057-0.172-0.158l-6.899-7.68c-0.089-0.1-0.216-0.334-0.377-0.334
	c-0.216,0-0.448,0.06-0.664,0.06c-0.231,0-0.447-0.06-0.682-0.06c-0.07,0-0.216,0.06-0.216,0.146c0,0.537,1.75-0.303,1.75,2.702
	V211.563L960.305,211.563z M951.267,208.035c-0.059,0.056-0.115,0.07-0.161,0.07c-0.041,0-0.072-0.059-0.072-0.146v-3.254
	c0-1.027,0.841-0.884,0.841-1.201c0-0.087-0.046-0.131-0.116-0.131c-0.435,0-0.884,0.062-1.491,0.062
	c-0.478,0-0.938-0.062-1.402-0.062c-0.132,0-0.191,0.03-0.191,0.16c0,0.374,1.217,0.03,1.217,1.23v7.403
	c0,1.232-1.027,0.984-1.027,1.216c0,0.215,0.202,0.233,0.363,0.233c0.229,0,0.68-0.059,1.416-0.059c1.116,0,1.373,0.059,1.419,0.059
	c0.086,0,0.391,0,0.391-0.146c0-0.521-1.418,0.157-1.418-1.449v-3.024c0-0.101,0.059-0.146,0.129-0.146
	c0.073,0,0.173,0.044,0.262,0.146l4.078,4.256c0.132,0.128,0.245,0.362,0.434,0.362c0.305,0,0.596-0.059,0.898-0.059
	c0.291,0,0.593,0.059,0.882,0.059c0.103,0,0.173-0.072,0.173-0.189c0-0.448-0.621,0.1-1.592-0.914l-4.019-4.208
	c-0.104-0.118-0.161-0.189-0.161-0.275c0-0.071,0.089-0.159,0.218-0.276l3.385-3.01c1.65-1.344,1.982-0.794,1.982-1.257
	c0-0.1-0.173-0.115-0.259-0.115c-0.464,0-0.58,0.059-1.332,0.059c-0.767,0-0.998-0.059-1.532-0.059
	c-0.116,0-0.189,0.059-0.189,0.173c0,0.26,0.812,0.216,0.812,0.68c0,0.365-0.754,0.926-1.027,1.174L951.267,208.035z"/>
</svg>
